<?xml version="1.0" encoding="UTF-8"?>
<svg version="1.1" xmlns="http://www.w3.org/2000/svg" width="512" height="512">
<path d="M0 0 C6.88933719 1.76238858 11.74591825 10.10577034 15.625 15.6875 C16.39759155 16.79399902 16.39759155 16.79399902 17.18579102 17.92285156 C34.6875 43.43650256 34.6875 43.43650256 34.6875 55.6875 C39.15155685 52.05396535 43.33619873 48.32194226 47.1796875 44.015625 C56.06317518 34.46094047 67.56787125 27.14515183 78.9375 20.875 C79.84834351 20.35969727 79.84834351 20.35969727 80.77758789 19.83398438 C83.42282937 18.43983547 85.41538178 17.68866622 88.421875 17.67578125 C91.51916646 19.05888209 92.13606945 20.69992512 93.6875 23.6875 C94.57885742 26.55004883 94.57885742 26.55004883 95.29296875 29.64453125 C95.68452148 31.31225586 95.68452148 31.31225586 96.08398438 33.01367188 C96.47553711 34.7394043 96.47553711 34.7394043 96.875 36.5 C97.28395508 38.25473633 97.28395508 38.25473633 97.70117188 40.04492188 C98.37101815 42.92408567 99.03282976 45.80485448 99.6875 48.6875 C100.53570312 47.79289062 101.38390625 46.89828125 102.2578125 45.9765625 C119.53078279 28.0439385 139.78705822 15.86193504 163.6875 8.6875 C164.42935547 8.46223633 165.17121094 8.23697266 165.93554688 8.00488281 C183.06591624 2.90361309 199.99798192 0.44997409 217.875 0.375 C219.01654541 0.36944092 220.15809082 0.36388184 221.33422852 0.3581543 C229.43022549 0.43022549 229.43022549 0.43022549 231.6875 2.6875 C232.07396856 9.35572017 231.24667987 15.52343277 230 22.0625 C229.82138428 23.01568115 229.64276855 23.9688623 229.45874023 24.95092773 C227.6500778 34.32223973 225.43096335 43.54612863 222.6875 52.6875 C222.48511719 53.36828613 222.28273438 54.04907227 222.07421875 54.75048828 C219.60759703 62.78491176 219.60759703 62.78491176 217.6875 65.6875 C214.52734375 66.5234375 214.52734375 66.5234375 211.6875 66.6875 C211.8525 67.368125 212.0175 68.04875 212.1875 68.75 C213.46626881 76.26276676 212.24656093 80.74366589 208.48046875 87.30078125 C205.89918929 90.73686349 203.70592003 91.37378576 199.6875 92.6875 C198.08010542 94.31795713 198.08010542 94.31795713 197.6875 96.6875 C197.831875 97.863125 197.97625 99.03875 198.125 100.25 C198.33203017 106.77753962 192.79892662 111.17841081 188.6875 115.6875 C187.59996193 116.97562842 186.51590712 118.26671762 185.4375 119.5625 C183.00801166 122.42689675 180.35588702 125.04597594 177.6875 127.6875 C178.83605469 127.85765625 179.98460937 128.0278125 181.16796875 128.203125 C200.85600752 131.22943839 200.85600752 131.22943839 208.6875 134.6875 C210.6875 137.6875 210.6875 137.6875 210.46484375 140.06640625 C204.97835435 158.56607653 187.96551668 175.56811234 173.6875 187.6875 C174.27015625 187.91300537 174.8528125 188.13851074 175.453125 188.37084961 C193.90437219 195.56748877 212.44047933 203.44047933 226.6875 217.6875 C226.66678638 222.08396551 226.28127275 224.06851992 223.203125 227.27734375 C222.13121752 228.08253011 221.04132686 228.86416035 219.9375 229.625 C219.3511377 230.049021 218.76477539 230.47304199 218.16064453 230.90991211 C216.35433945 232.19781682 214.52694615 233.44750279 212.6875 234.6875 C211.66914063 235.38101563 210.65078125 236.07453125 209.6015625 236.7890625 C203.27873598 240.86882974 196.71916934 244.25702341 189.9375 247.5 C188.76743408 248.05989624 188.76743408 248.05989624 187.57373047 248.63110352 C182.38814513 251.04837394 177.15164869 252.99517231 171.6875 254.6875 C174.09451432 257.10727234 176.50685196 259.51517533 178.9765625 261.87109375 C189.50325067 272.02811561 207.21432416 289.65656396 209.0625 304.75 C208.6875 307.6875 208.6875 307.6875 207.25390625 309.20703125 C203.45857398 311.39642384 199.48981772 312.29333951 195.25 313.3125 C194.35998291 313.5290625 193.46996582 313.745625 192.55297852 313.96875 C178.1241653 317.34873046 178.1241653 317.34873046 171.6875 316.6875 C170.03515625 315.25 170.03515625 315.25 168.6875 313.6875 C167.6975 313.3575 166.7075 313.0275 165.6875 312.6875 C165.378125 313.326875 165.06875 313.96625 164.75 314.625 C163.6875 316.6875 163.6875 316.6875 162.6875 317.6875 C160.37675832 317.78682392 158.06287058 317.81719618 155.75 317.8125 C154.48285156 317.81507813 153.21570313 317.81765625 151.91015625 317.8203125 C148.6875 317.6875 148.6875 317.6875 146.6875 316.6875 C147.20699219 317.78964844 147.72648437 318.89179688 148.26171875 320.02734375 C154.77978769 334.09479194 159.28643286 347.65092733 161.625 363 C161.76591064 363.90210205 161.90682129 364.8042041 162.05200195 365.73364258 C162.16761475 366.58079834 162.28322754 367.4279541 162.40234375 368.30078125 C162.50667725 369.05141846 162.61101074 369.80205566 162.71850586 370.57543945 C162.68079151 373.14446985 162.10645067 374.55731641 160.6875 376.6875 C156.05978476 378.07924251 151.6000473 377.60350048 146.875 377 C145.7607666 376.85908936 145.7607666 376.85908936 144.62402344 376.71533203 C127.66368916 374.42271831 110.95078536 369.53398168 95.6875 361.6875 C96.0175 362.3475 96.3475 363.0075 96.6875 363.6875 C98.16999476 380.44642943 98.12535055 408.82940713 87.93359375 423.15234375 C85.6875 424.6875 85.6875 424.6875 82.9140625 424.6875 C78.96776487 423.46443439 75.62641423 421.75394954 72.0625 419.6875 C71.3602832 419.28450684 70.65806641 418.88151367 69.93457031 418.46630859 C56.64484682 410.69027785 45.4787044 400.57662821 34.6875 389.6875 C34.31165771 390.5693396 34.31165771 390.5693396 33.92822266 391.46899414 C28.53694375 404.00585699 22.96845139 415.79895605 14.6875 426.6875 C14.22134277 427.3057666 13.75518555 427.9240332 13.27490234 428.56103516 C11.85480143 430.41706069 10.4056547 432.24431833 8.9375 434.0625 C8.50187744 434.61687744 8.06625488 435.17125488 7.61743164 435.74243164 C5.44427293 438.32298046 3.81885658 439.64041939 0.625 440.78515625 C-2.3125 440.6875 -2.3125 440.6875 -4.515625 439.16015625 C-17.66522103 423.67675788 -26.89878117 405.5069401 -34.3125 386.6875 C-34.94414062 387.35394531 -35.57578125 388.02039063 -36.2265625 388.70703125 C-47.86406875 400.69668106 -67.99204246 420.82676743 -85.36083984 422.9362793 C-87.3125 422.9375 -87.3125 422.9375 -90.3125 422.6875 C-92.78458109 418.17295876 -94.27706678 413.75132157 -95.375 408.75 C-95.62878418 407.61135498 -95.62878418 407.61135498 -95.88769531 406.44970703 C-97.99366966 396.31952408 -98.63437734 385.99441309 -99.3125 375.6875 C-99.87195313 376.22117187 -100.43140625 376.75484375 -101.0078125 377.3046875 C-117.51714564 392.64615784 -136.21729337 402.98353918 -157.3125 410.6875 C-157.99006348 410.93628906 -158.66762695 411.18507813 -159.36572266 411.44140625 C-181.47612792 419.38051047 -205.46409993 422.62248657 -228.875 423 C-229.57173828 423.01780518 -230.26847656 423.03561035 -230.98632812 423.05395508 C-233.92868637 423.04917852 -236.10283164 422.78700927 -238.7734375 421.51953125 C-240.3125 419.6875 -240.3125 419.6875 -240.66015625 417.2109375 C-237.93569352 387.12988321 -237.93569352 387.12988321 -232.3125 375.6875 C-229.6875 374.875 -229.6875 374.875 -227.3125 374.6875 C-227.6425 374.006875 -227.9725 373.32625 -228.3125 372.625 C-230.53721112 366.0899111 -228.99238796 361.04950344 -226.67578125 354.82421875 C-224.93260299 352.09207403 -223.28870541 351.78926835 -220.3125 350.6875 C-218.94060173 347.65767694 -218.94060173 347.65767694 -218.3125 344.6875 C-218.6425 344.3575 -218.9725 344.0275 -219.3125 343.6875 C-220.08486673 337.13954648 -217.84646285 333.00573048 -214.6875 327.375 C-214.0061499 326.1223938 -214.0061499 326.1223938 -213.31103516 324.84448242 C-210.13094078 319.03654255 -206.852255 313.28491745 -203.3125 307.6875 C-204.281875 307.275 -205.25125 306.8625 -206.25 306.4375 C-209.3125 304.6875 -209.3125 304.6875 -210.15234375 302.88671875 C-210.79975677 293.9966327 -199.58981215 281.81620542 -193.97802734 275.08740234 C-190.86536596 271.51409808 -187.61052154 268.08961978 -184.3125 264.6875 C-183.44496094 263.79160156 -182.57742187 262.89570313 -181.68359375 261.97265625 C-175.67719673 255.86984837 -175.67719673 255.86984837 -173.3125 254.6875 C-175.0140625 253.945 -175.0140625 253.945 -176.75 253.1875 C-177.9875 252.630625 -177.9875 252.630625 -179.25 252.0625 C-180.86880161 251.33569111 -182.48874876 250.61120183 -184.1171875 249.90625 C-192.82759481 246.12824201 -200.96441202 241.89487307 -208.875 236.625 C-209.60001709 236.14289063 -210.32503418 235.66078125 -211.07202148 235.1640625 C-214.76483488 232.63894554 -218.32135108 229.97009035 -221.77734375 227.12890625 C-222.43210693 226.59080322 -223.08687012 226.0527002 -223.76147461 225.49829102 C-225.70747165 223.22637852 -226.13481461 221.65772341 -226.3125 218.6875 C-224.1875 216.1328125 -224.1875 216.1328125 -221.3125 213.6875 C-220.136875 212.66269531 -220.136875 212.66269531 -218.9375 211.6171875 C-204.44991732 200.27720463 -187.53627085 192.84936185 -170.3125 186.6875 C-171.13492188 185.96046875 -171.95734375 185.2334375 -172.8046875 184.484375 C-186.29272749 172.4054423 -202.94799594 155.56918019 -208.3125 137.6875 C-208.23828125 135.1015625 -208.23828125 135.1015625 -207.3125 132.6875 C-203.21195231 129.20284485 -198.0794365 128.55745675 -192.9375 127.5625 C-192.1125 127.39363281 -191.2875 127.22476563 -190.4375 127.05078125 C-183.39597604 125.63129944 -176.47842886 124.59488445 -169.28515625 124.37109375 C-167.99931641 124.32919922 -166.71347656 124.28730469 -165.38867188 124.24414062 C-164.05078375 124.204343 -162.71289309 124.16463049 -161.375 124.125 C-160.00975438 124.08173346 -158.64451982 124.03811679 -157.27929688 123.99414062 C-153.95712348 123.88848847 -150.63488054 123.78638605 -147.3125 123.6875 C-147.745625 122.73488281 -148.17875 121.78226562 -148.625 120.80078125 C-149.18798329 119.53406885 -149.75045648 118.26712965 -150.3125 117 C-150.59867187 116.37416016 -150.88484375 115.74832031 -151.1796875 115.10351562 C-152.76016485 111.50981118 -153.86355492 108.62065449 -153.3125 104.6875 C-152.3225 103.2025 -152.3225 103.2025 -151.3125 101.6875 C-151.24495166 99.62150917 -151.24495166 99.62150917 -152.3125 97.6875 C-153.12074219 97.26984375 -153.92898437 96.8521875 -154.76171875 96.421875 C-158.86473748 93.6320736 -158.82842334 90.12794703 -159.74609375 85.4609375 C-162.33404626 68.21981939 -162.33404626 68.21981939 -159.3125 63.6875 C-140.10078528 59.2168494 -113.1702285 71.28841972 -96.3125 79.6875 C-96.33606567 78.64746826 -96.33606567 78.64746826 -96.36010742 77.58642578 C-96.7809361 56.10463104 -95.02537534 37.80101622 -87.3125 17.6875 C-86.3125 16.6875 -86.3125 16.6875 -83.72265625 16.3828125 C-79.4344235 16.76595357 -76.38522341 18.41744845 -72.75 20.5625 C-72.04963623 20.96815186 -71.34927246 21.37380371 -70.62768555 21.79174805 C-56.59610437 30.10622828 -44.74668681 41.14821956 -33.3125 52.6875 C-32.60287109 50.90859375 -32.60287109 50.90859375 -31.87890625 49.09375 C-13.61093821 4.04649514 -13.61093821 4.04649514 0 0 Z " fill="#030300" transform="translate(255.3125,35.3125)"/>
<path d="M0 0 C0.99 0.495 0.99 0.495 2 1 C0.76636719 1.81791016 0.76636719 1.81791016 -0.4921875 2.65234375 C-14.04083627 11.75139113 -26.43994762 22.20859318 -34 37 C-33.50113281 36.45472656 -33.00226563 35.90945312 -32.48828125 35.34765625 C-17.11860578 19.20535796 3.06301464 8.47355714 25.51171875 7.69140625 C35.59253547 7.5315399 45.16267928 7.62944243 55 10 C55.7945459 10.18079102 56.5890918 10.36158203 57.40771484 10.54785156 C77.15143874 15.26343846 94.67787109 29.71373781 105.6875 46.3125 C117.74300929 66.26548412 122.17300445 86.65421493 116.76879883 109.484375 C112.67030474 125.5642905 105.64538008 138.16245193 94 150 C93.23945313 150.7734375 92.47890625 151.546875 91.6953125 152.34375 C82.18107829 161.45245947 70.3825248 167.66447408 58 172 C57.08992188 172.3196875 56.17984375 172.639375 55.2421875 172.96875 C38.83892203 177.69289046 20.64769279 176.15147842 4.5703125 171.09375 C1.14427807 169.85354527 1.14427807 169.85354527 -2 170 C7.76158493 175.47116377 17.05318549 180.30816037 28 183 C28.81984375 183.21140625 29.6396875 183.4228125 30.484375 183.640625 C35.62177804 184.8806878 40.74203946 185.49924185 46 186 C46 186.33 46 186.66 46 187 C14.40135008 187.7001178 -11.8600823 182.67587506 -36 161 C-36.69480469 160.38769531 -37.38960937 159.77539062 -38.10546875 159.14453125 C-53.62965192 144.61191267 -65.11938908 122.3949836 -66.140625 101.0625 C-66.94192182 73.62609699 -66.94192182 73.62609699 -62 61 C-61.76394043 60.36239746 -61.52788086 59.72479492 -61.28466797 59.06787109 C-52.06062588 34.40500678 -33.21438375 14.78109208 -9.35107422 3.77514648 C-6.25301842 2.39671791 -3.21199065 1.09706709 0 0 Z " fill="#030100" transform="translate(223,162)"/>
<path d="M0 0 C-1.19946544 13.67390598 -4.57092195 26.5548855 -8.66259766 39.61157227 C-10.27593671 44.88927355 -11.63187529 49.46923279 -11 55 C-10.34 55.66 -9.68 56.32 -9 57 C-9.4375 59.0625 -9.4375 59.0625 -10 61 C-9.67 61.33 -9.34 61.66 -9 62 C-8.06450857 68.14751513 -10.15883651 72.30855687 -13.2109375 77.6171875 C-15.79288065 81.05602008 -17.99089517 81.63841723 -22 83 C-22.495 83.86625 -22.99 84.7325 -23.5 85.625 C-23.995 86.40875 -24.49 87.1925 -25 88 C-26.08925781 88.0928125 -27.17851562 88.185625 -28.30078125 88.28125 C-32.29136086 89.05661077 -33.28606328 89.88325812 -35.56103516 93.15234375 C-35.93276855 93.72082031 -36.30450195 94.28929687 -36.6875 94.875 C-41.69475795 101.92384381 -47.36945158 107.4822709 -54 113 C-54.66386719 113.59167969 -55.32773437 114.18335938 -56.01171875 114.79296875 C-62.10201765 119.50931736 -69.70467299 118.42746057 -77 118 C-76.71278076 117.30551758 -76.42556152 116.61103516 -76.12963867 115.89550781 C-74.80705314 112.68378086 -73.49724573 109.46698326 -72.1875 106.25 C-71.73568359 105.15816406 -71.28386719 104.06632812 -70.81835938 102.94140625 C-67.46770411 94.67482611 -64.71043806 86.43755391 -63.55078125 77.56176758 C-61.98166212 67.05314021 -57.18640172 61.80045246 -49.6875 54.9375 C-48.64138817 53.93814903 -47.59774968 52.93620236 -46.55664062 51.93164062 C-42.72044302 48.25894178 -38.85882561 44.67229215 -34.67895508 41.39282227 C-31.652962 39.22474322 -31.652962 39.22474322 -31.625 35.6875 C-31.810625 34.3571875 -31.810625 34.3571875 -32 33 C-35.77539623 32.60057402 -37.44078093 32.56437009 -40.4921875 34.94140625 C-41.27851563 35.80636719 -42.06484375 36.67132813 -42.875 37.5625 C-46.5208365 41.44408232 -50.19952375 45.03978434 -54.27734375 48.4609375 C-56.22743647 50.12006888 -56.22743647 50.12006888 -58.375 52.9375 C-61.36809195 55.28921511 -61.9146086 55.20057399 -65.5390625 55.02734375 C-70.87190627 54.92195729 -75.7785626 55.59223186 -81 56.625 C-81.90137695 56.8003125 -82.80275391 56.975625 -83.73144531 57.15625 C-96.03326621 59.67616 -107.59507683 63.79775434 -119 69 C-119.99 69 -120.98 69 -122 69 C-122.83690844 61.68867491 -122.88452603 56.28823706 -118.4375 50.1875 C-116.98448485 48.43630088 -115.50659304 46.70532367 -114 45 C-113.20916016 43.97326172 -113.20916016 43.97326172 -112.40234375 42.92578125 C-90.2484075 14.99255729 -50.49836183 4.45301831 -16.87646484 0.29589844 C-11.24036766 -0.28388002 -5.65777451 -0.37032706 0 0 Z " fill="#00AE4C" transform="translate(477,45)"/>
<path d="M0 0 C0.8559375 0.20496094 1.711875 0.40992188 2.59375 0.62109375 C17.89520433 3.81909771 33.42860185 3.74206799 49 4 C44.48204575 14.59061628 39.73688398 21.96732964 30.81884766 29.40380859 C26.35966962 33.31711142 22.29312671 37.66906824 18.13891602 41.90014648 C13.60058498 46.49009223 8.90700111 50.80786284 4 55 C0.04192669 58.21190704 0.04192669 58.21190704 -1.3125 62.8125 C-1.1578125 63.8953125 -1.1578125 63.8953125 -1 65 C1.31683427 65.76002739 1.31683427 65.76002739 4 66 C5.98642276 64.96205969 5.98642276 64.96205969 7.6875 63.1875 C8.37199219 62.54167969 9.05648437 61.89585937 9.76171875 61.23046875 C13.03251537 57.97108852 16.29924691 54.70827651 19.546875 51.42578125 C24.74492429 46.285672 30.38489107 41.6713265 36 37 C35.79503906 38.00417969 35.59007813 39.00835937 35.37890625 40.04296875 C33.65939378 48.69257318 32.43835964 57.17234381 32 66 C49.15298277 67.21940636 66.0332541 62.99496897 81.94873047 56.79248047 C83.61482237 56.14736634 85.30569767 55.56689864 87 55 C87.66 55.33 88.32 55.66 89 56 C61.54275746 85.69695719 17.79347352 100.9949025 -22 103 C-27.00020245 103.0994001 -31.99940442 103.06073598 -37 103 C-37.21671676 96.29532515 -36.47067336 90.4035973 -35 83.875 C-33.71807129 78.13230583 -32.74430998 72.89685101 -33 67 C-33.66 66.67 -34.32 66.34 -35 66 C-38.25124726 58.41375639 -37.13886746 52.59539279 -34.36328125 45.13671875 C-32.61933252 42.40336644 -30.98282896 42.09116267 -28 41 C-27.525625 40.01 -27.05125 39.02 -26.5625 38 C-26.046875 37.01 -25.53125 36.02 -25 35 C-23.65035156 34.7525 -23.65035156 34.7525 -22.2734375 34.5 C-16.94109412 32.05653955 -15.49502753 27.13356006 -13.0625 22 C-9.26475863 14.16307146 -5.21782524 6.98931508 0 0 Z " fill="#00AE4C" transform="translate(63,345)"/>
<path d="M0 0 C1.80404297 0.433125 1.80404297 0.433125 3.64453125 0.875 C23.21207772 5.2584424 43.24847784 6.19389316 62.71875 0.875 C66 0 66 0 69 0 C69.37915198 14.16084025 68.85547909 27.72778526 66.40136719 41.69140625 C66.04207388 43.75799841 65.72522034 45.8318644 65.4140625 47.90625 C61.42467317 71.7389655 49.74378864 92.29996141 35 111 C30.95118417 107.23935612 28.0126701 103.32402681 25.125 98.625 C24.69155273 97.92165527 24.25810547 97.21831055 23.81152344 96.49365234 C6.42769369 67.75436016 -1.0100469 33.38766149 0 0 Z " fill="#FDED00" transform="translate(221,353)"/>
<path d="M0 0 C9.96745612 8.47198992 18.14253611 17.56779143 26 28 C26.6290625 28.83402344 27.258125 29.66804688 27.90625 30.52734375 C41.6780027 49.52846481 57.02728411 75.73041292 56 100 C49.29658584 100.25190283 43.46898531 99.7100792 37 98 C35.89914062 97.74347656 34.79828125 97.48695313 33.6640625 97.22265625 C23.91575472 94.84178024 15.02775489 91.36016101 6 87 C5.06438232 86.55164795 5.06438232 86.55164795 4.10986328 86.09423828 C-14.70139233 76.94348542 -34.58073315 63.2531493 -48 47 C-48 46.34 -48 45.68 -48 45 C-46.65808594 44.27296875 -46.65808594 44.27296875 -45.2890625 43.53125 C-30.38325264 36.04500718 -30.38325264 36.04500718 -21 23.5625 C-20.67 22.386875 -20.34 21.21125 -20 20 C-19.34 19.01 -18.68 18.02 -18 17 C-16.92621094 16.93941406 -15.85242188 16.87882812 -14.74609375 16.81640625 C-9.98744217 15.77932786 -9.06154169 14.14900329 -6.47460938 10.22460938 C-5.77561523 9.09249023 -5.77561523 9.09249023 -5.0625 7.9375 C-4.56943359 7.17888672 -4.07636719 6.42027344 -3.56835938 5.63867188 C-2.35844322 3.77093722 -1.17061965 1.89251766 0 0 Z " fill="#FDEC00" transform="translate(351,302)"/>
<path d="M0 0 C2.90528987 2.62383991 4.85225057 5.68034324 7 8.9375 C18.27411425 25.50188297 32.4663571 36.58913919 50 46 C34.19992161 65.54220222 11.63168158 79.63069902 -11 90 C-11.61697754 90.28359375 -12.23395508 90.5671875 -12.86962891 90.859375 C-26.15856655 96.84875535 -40.41648693 100.35755449 -55 101 C-54.07460754 62.80652931 -26.58903785 25.38044522 0 0 Z " fill="#FDED00" transform="translate(159,302)"/>
<path d="M0 0 C38.87279769 -0.7303866 79.63426522 7.6492239 111 32 C99.7263905 43.8625294 85.04830906 50.24402928 70 56 C68.99428955 56.39227783 68.99428955 56.39227783 67.96826172 56.79248047 C45.73867985 65.26005316 21.53522667 66.92523874 -2 66 C-1.72285156 64.90300781 -1.44570313 63.80601562 -1.16015625 62.67578125 C-0.79420763 61.22137007 -0.42832573 59.7669421 -0.0625 58.3125 C0.21110352 57.2306543 0.21110352 57.2306543 0.49023438 56.12695312 C0.66748047 55.42119141 0.84472656 54.71542969 1.02734375 53.98828125 C1.18968506 53.34415283 1.35202637 52.70002441 1.51928711 52.03637695 C5.39622985 35.61302529 4.30730405 16.28058374 0 0 Z " fill="#FDED00" transform="translate(359,223)"/>
<path d="M0 0 C-0.31940552 1.25272705 -0.31940552 1.25272705 -0.64526367 2.53076172 C-2.78124386 11.54296226 -3.43115566 19.85087323 -3.3125 29.125 C-3.31733398 31.02572266 -3.31733398 31.02572266 -3.32226562 32.96484375 C-3.28235404 46.01907252 -3.28235404 46.01907252 0.0690918 58.52392578 C1.07127118 61.18957051 1.16129088 63.17740956 1 66 C-14.31645071 66.36872937 -28.95264741 65.9882181 -44 63 C-44.72590332 62.86078125 -45.45180664 62.7215625 -46.19970703 62.578125 C-69.16438759 58.06767171 -91.68767861 48.73215968 -110 34 C-106.63424057 24.83540204 -89.50141657 18.87177919 -81.02197266 14.91845703 C-55.71201778 3.42171105 -27.60669395 -0.74837423 0 0 Z " fill="#FDEC00" transform="translate(152,223)"/>
<path d="M0 0 C31.48079125 1.17246895 63.09558792 18.33868984 87 38 C87.63486328 38.52126465 88.26972656 39.0425293 88.92382812 39.57958984 C90.89595288 41.2090507 92.85672856 42.85095784 94.8125 44.5 C95.73881226 45.27500854 95.73881226 45.27500854 96.68383789 46.06567383 C98.16222598 47.33223065 99.58687005 48.6610223 101 50 C101 50.66 101 51.32 101 52 C99.27059936 53.08955258 97.48792031 54.09480268 95.6875 55.0625 C77.09705828 65.63567719 64.90749118 81.05541774 54 99 C34.23900047 83.2810231 19.68671433 61.10783653 9.5078125 38.2421875 C8.1566112 35.33675465 6.81937623 32.63712777 5 30 C4.13375 29.690625 3.2675 29.38125 2.375 29.0625 C1.199375 28.5365625 1.199375 28.5365625 0 28 C-0.8125 24.875 -0.8125 24.875 -1 22 C-0.01 21.34 0.98 20.68 2 20 C1.90912109 19.09121094 1.90912109 19.09121094 1.81640625 18.1640625 C1.2109375 12.109375 0.60546875 6.0546875 0 0 Z " fill="#FDED00" transform="translate(104,109)"/>
<path d="M0 0 C1.31827501 31.55355018 -20.31260116 64.25556513 -40.8125 86.5625 C-44.79382332 90.79193477 -48.84695555 94.93924543 -53 99 C-55.6245415 96.61119576 -57.30001279 94.03282898 -59.125 91 C-69.75589605 74.05770881 -83.64497799 61.63922242 -101 52 C-101 51.34 -101 50.68 -101 50 C-99.45111498 48.58293498 -97.83238466 47.24190504 -96.1875 45.9375 C-91.73314313 42.38969493 -91.73314313 42.38969493 -87.34765625 38.7578125 C-64.78093421 19.68638726 -30.71804296 -1.20557468 0 0 Z " fill="#FDED00" transform="translate(407,109)"/>
<path d="M0 0 C23.08762008 22.49155415 34.66415837 58.73165461 35.1171875 90.44921875 C35.1426451 95.30101284 35.08946414 100.1490557 35 105 C29.56953787 104.48424061 24.37933526 103.6981929 19.0625 102.4375 C3.5665191 99.14670278 -11.57699335 101.30278405 -27 104 C-28.99988186 104.3340414 -30.99982589 104.66771301 -33 105 C-33.35607927 91.62724519 -32.85997011 79.082842 -30 66 C-29.73461426 64.77168457 -29.73461426 64.77168457 -29.46386719 63.51855469 C-24.34882974 40.38162366 -15.19482348 18.38793856 0 0 Z " fill="#FDED00" transform="translate(255,48)"/>
<path d="M0 0 C10.25717728 8.75190321 18.34191162 17.82686422 25.0078125 29.56640625 C25.58273437 30.56414062 26.15765625 31.561875 26.75 32.58984375 C33.65469925 45.40304186 36.18683319 59.20560077 36.1953125 73.62890625 C36.20755859 74.69818359 36.21980469 75.76746094 36.23242188 76.86914062 C36.2674348 96.18460668 30.37102034 116.22067169 17.76171875 131.2421875 C15.64771619 133.5469009 15.64771619 133.5469009 16.0703125 137.06640625 C16.0078125 140.56640625 16.0078125 140.56640625 13.8203125 143.56640625 C12.8921875 144.22640625 11.9640625 144.88640625 11.0078125 145.56640625 C10.255 145.34082031 9.5021875 145.11523438 8.7265625 144.8828125 C5.7875047 144.24072184 5.7875047 144.24072184 3.01953125 146.59375 C1.90297505 147.55402542 0.79539234 148.52479901 -0.3046875 149.50390625 C-7.58625512 155.61677884 -15.34217479 159.71669436 -23.9921875 163.56640625 C-25.178125 164.09878906 -26.3640625 164.63117188 -27.5859375 165.1796875 C-43.85176796 171.80167123 -61.35565925 171.04063464 -77.50390625 164.55810547 C-85.36020791 161.14845866 -92.97140055 157.49327428 -99.9921875 152.56640625 C-95.57212806 151.16610016 -92.29858446 152.48679799 -88.0546875 153.94140625 C-86.65051802 154.40989176 -85.24558447 154.87609423 -83.83984375 155.33984375 C-83.22117432 155.55044434 -82.60250488 155.76104492 -81.96508789 155.97802734 C-62.34928282 161.82805707 -39.71237203 157.50522985 -21.9296875 148.25390625 C-15.40213201 144.66330405 -9.49700133 140.61003247 -3.9921875 135.56640625 C-3.23808594 134.90382813 -2.48398437 134.24125 -1.70703125 133.55859375 C13.84470268 119.10054952 21.63031435 98.53854394 23.32421875 77.66796875 C24.01595963 54.95209088 15.27336406 34.20647458 0.0078125 17.56640625 C-14.60725488 2.43377325 -34.75833745 -7.01156435 -55.765625 -7.671875 C-83.07671599 -8.13526573 -104.07364567 -2.0764778 -124.3515625 16.7578125 C-125.93457627 18.32499613 -127.47102674 19.93911799 -128.9921875 21.56640625 C-128.9921875 13.16903163 -118.53183498 4.27011995 -112.9921875 -1.43359375 C-82.18958037 -31.79972669 -32.21544664 -25.38577195 0 0 Z " fill="#57260B" transform="translate(317.9921875,178.43359375)"/>
<path d="M0 0 C14.34497739 12.03265268 26.37004587 24.89304118 35.4921875 41.3203125 C32.04841849 43.29303944 28.67954996 44.0359619 24.8046875 44.8203125 C23.57105469 45.07425781 22.33742188 45.32820313 21.06640625 45.58984375 C19.88691406 45.83089844 18.70742188 46.07195312 17.4921875 46.3203125 C15.6994982 46.71148834 13.90762552 47.10645835 12.1171875 47.5078125 C10.9209375 47.7759375 9.7246875 48.0440625 8.4921875 48.3203125 C8.1621875 49.6403125 7.8321875 50.9603125 7.4921875 52.3203125 C5.1171875 52.0078125 5.1171875 52.0078125 2.4921875 51.3203125 C1.8321875 50.3303125 1.1721875 49.3403125 0.4921875 48.3203125 C-2.47834287 47.9859799 -5.28125474 47.8072648 -8.2578125 47.7578125 C-19.17768788 47.52004102 -19.17768788 47.52004102 -23.5078125 45.3203125 C-25.15145258 43.22356083 -26.40269922 41.3613837 -27.6953125 39.0703125 C-34.49385798 27.82583583 -42.67783607 17.92632956 -51.7121582 8.40600586 C-55.41862566 4.49868617 -55.41862566 4.49868617 -56.5078125 2.3203125 C-55.73405273 2.27543701 -54.96029297 2.23056152 -54.16308594 2.18432617 C-33.78983149 0.99432426 -33.78983149 0.99432426 -13.58886719 -1.80200195 C-8.12972887 -2.75216843 -4.67608428 -3.13195676 0 0 Z " fill="#FDC031" transform="translate(417.5078125,295.6796875)"/>
<path d="M0 0 C4.81034532 1.34950864 8.56221526 3.45541212 12.5625 6.375 C13.16457275 6.80981689 13.76664551 7.24463379 14.38696289 7.69262695 C21.063047 12.62280573 27.05041524 18.22971779 33 24 C33.73476562 24.70640625 34.46953125 25.4128125 35.2265625 26.140625 C36.85549568 27.73490003 38.45976283 29.32011466 40 31 C40.7321875 31.77472656 41.464375 32.54945312 42.21875 33.34765625 C44 36 44 36 44.05859375 38.59375 C43.85363281 39.5528125 43.64867187 40.511875 43.4375 41.5 C43.21964844 42.64210937 43.00179687 43.78421875 42.77734375 44.9609375 C42.58760986 45.91758301 42.58760986 45.91758301 42.39404297 46.89355469 C41.63508872 50.9507153 41.0789689 55.03897371 40.5 59.125 C40.37254395 60.01082764 40.24508789 60.89665527 40.11376953 61.80932617 C38.83538317 70.84841343 37.88255544 79.91487049 37 89 C33.41853174 86.68855594 30.15619385 84.36670297 27.0625 81.4375 C18.19654028 73.42374889 8.25671439 66.56501672 -1.92578125 60.33984375 C-4 59 -4 59 -6 57 C-6.73689092 53.04442518 -6.81009477 49.01390604 -7 45 C-7.07734375 43.78054687 -7.1546875 42.56109375 -7.234375 41.3046875 C-7.67795261 28.71201213 -7.11418786 10.67128179 0 0 Z " fill="#FCC031" transform="translate(175,64)"/>
<path d="M0 0 C3.04428304 3.78254241 4.05298027 7.30403438 5 12 C5.18691406 12.7734375 5.37382812 13.546875 5.56640625 14.34375 C7.10284341 21.64988473 7.18190498 28.87784284 7.1875 36.3125 C7.18830566 37.35083984 7.18911133 38.38917969 7.18994141 39.45898438 C7.17559355 41.43707598 7.1388258 43.41516741 7.07666016 45.39233398 C7.01385017 47.52887357 7.04281131 49.66792862 7.09765625 51.8046875 C5.28282866 57.08770875 0.87653109 59.01300162 -3.75 61.8125 C-5.68181879 63.03961994 -7.61151242 64.27009189 -9.5390625 65.50390625 C-10.47911133 66.09961426 -11.41916016 66.69532227 -12.38769531 67.30908203 C-21.27681833 73.06291997 -29.24934203 79.92785017 -36.953125 87.1640625 C-39 89 -39 89 -40 89 C-40.02187378 88.16529175 -40.02187378 88.16529175 -40.04418945 87.3137207 C-40.40160653 74.96072993 -41.35595112 62.90822301 -43.28125 50.69921875 C-43.45479004 49.52734009 -43.45479004 49.52734009 -43.63183594 48.33178711 C-43.88074588 46.75530243 -44.17179292 45.18498824 -44.50097656 43.62329102 C-45.31013528 39.15085863 -45.38966419 37.61365 -42.859375 33.62890625 C-41.84933037 32.58066175 -40.81097737 31.55916128 -39.75 30.5625 C-39.20077881 30.01174805 -38.65155762 29.46099609 -38.08569336 28.89355469 C-36.41481832 27.23492489 -34.71191209 25.61610553 -33 24 C-32.07832031 23.09636719 -31.15664063 22.19273438 -30.20703125 21.26171875 C-21.19687086 12.70406273 -11.05258024 5.68336814 0 0 Z " fill="#FCC031" transform="translate(339,65)"/>
<path d="M0 0 C0.07516846 0.83023682 0.15033691 1.66047363 0.2277832 2.51586914 C1.89331972 22.49165929 1.89331972 22.49165929 5.44921875 42.1875 C6.06727142 45.34351364 6.41098693 47.79597944 6 51 C4.45123975 53.19282882 3.05645944 54.87760612 1.1875 56.75 C0.68976074 57.26731689 0.19202148 57.78463379 -0.32080078 58.31762695 C-1.86082477 59.8996075 -3.4244994 61.45340767 -5 63 C-6.34771484 64.32837891 -6.34771484 64.32837891 -7.72265625 65.68359375 C-17.6824907 75.08602952 -28.55697657 82.28293518 -41 88 C-45.97099965 74.77281833 -46.81125463 59.17331 -46.10058594 45.15283203 C-46.02745617 43.58764204 -46.01240541 42.01940881 -46.03222656 40.45263672 C-45.87625049 33.99402767 -45.87625049 33.99402767 -43.53417969 31.3371582 C-41.50818489 29.87303999 -39.45393117 28.67886339 -37.25 27.5 C-35.68867237 26.58014553 -34.13010134 25.65559725 -32.57421875 24.7265625 C-31.79868652 24.27313477 -31.0231543 23.81970703 -30.22412109 23.35253906 C-21.81007941 18.23576728 -14.31065167 11.59050433 -7.12109375 4.91015625 C-1.66871166 0 -1.66871166 0 0 0 Z " fill="#FDC031" transform="translate(212,359)"/>
<path d="M0 0 C1.19625 -0.00128906 2.3925 -0.00257813 3.625 -0.00390625 C5.49671875 0.00189453 5.49671875 0.00189453 7.40625 0.0078125 C8.623125 0.00394531 9.84 0.00007812 11.09375 -0.00390625 C21.83949377 0.00757425 32.25566136 0.33211543 42.65625 3.1953125 C43.36523438 3.38158203 44.07421875 3.56785156 44.8046875 3.75976562 C46.50759045 4.20850356 48.20731693 4.66927112 49.90625 5.1328125 C42.99208307 20.40159781 30.97091958 32.74727995 18.90625 44.1328125 C18.12765625 44.88820312 17.3490625 45.64359375 16.546875 46.421875 C11.21618244 49.87578527 5.2418173 47.96004216 -0.65625 46.7578125 C-2.07903472 46.47975559 -3.50222114 46.20374703 -4.92578125 45.9296875 C-5.63041504 45.79369141 -6.33504883 45.65769531 -7.06103516 45.51757812 C-19.02845918 43.25230545 -30.95115069 42.5970165 -43.09375 42.1328125 C-39.82134492 38.24526679 -36.49038213 34.46483724 -32.95849609 30.80810547 C-24.26316072 21.74389511 -17.05035557 11.56772086 -10.09375 1.1328125 C-6.81545124 -0.14381504 -3.48279804 0.00365183 0 0 Z " fill="#FEC131" transform="translate(404.09375,171.8671875)"/>
<path d="M0 0 C1.05928711 -0.00531738 2.11857422 -0.01063477 3.20996094 -0.01611328 C13.55838438 0.07875004 13.55838438 0.07875004 17.5625 2.3125 C19.74947416 4.73478876 21.48418327 7.38678192 23.25 10.125 C28.56054675 17.99897236 34.27325155 25.20658795 40.5625 32.3125 C41.42617187 33.29863281 42.28984375 34.28476563 43.1796875 35.30078125 C46.90092205 39.88584542 46.90092205 39.88584542 51.5625 43.3125 C51.5625 43.9725 51.5625 44.6325 51.5625 45.3125 C50.34820312 45.33828125 49.13390625 45.3640625 47.8828125 45.390625 C32.5589905 45.85130952 16.80340872 47.17146638 1.90893555 50.9934082 C-0.4375 51.3125 -0.4375 51.3125 -3.41796875 49.35546875 C-4.50187179 48.42064024 -5.57017862 47.46752364 -6.625 46.5 C-7.19524902 45.9937207 -7.76549805 45.48744141 -8.35302734 44.96582031 C-10.06456858 43.43199579 -11.75263967 41.8755265 -13.4375 40.3125 C-14.76587891 39.10787109 -14.76587891 39.10787109 -16.12109375 37.87890625 C-25.78445088 28.710313 -34.20078949 17.60864345 -39.4375 5.3125 C-27.71984874 -0.1652638 -12.65559269 0.03161109 0 0 Z " fill="#FDC031" transform="translate(98.4375,168.6875)"/>
<path d="M0 0 C0.96808594 0.20496094 1.93617187 0.40992188 2.93359375 0.62109375 C4.08214844 0.83765625 5.23070312 1.05421875 6.4140625 1.27734375 C7.04618652 1.40367187 7.67831055 1.53 8.32958984 1.66015625 C23.29085932 4.58012657 38.14860365 5.68362495 53.37109375 6.05859375 C49.92447458 10.80093999 46.40112934 15.22087551 42.30859375 19.43359375 C35.68705981 26.42764718 30.23677088 34.26206988 24.73046875 42.14257812 C24.05757812 43.09100586 24.05757812 43.09100586 23.37109375 44.05859375 C22.96648926 44.78892822 22.56188477 45.5192627 22.14501953 46.27172852 C20.37109375 48.05859375 20.37109375 48.05859375 17.17919922 48.56030273 C15.87869629 48.55844971 14.57819336 48.55659668 13.23828125 48.5546875 C12.53311874 48.55732101 11.82795624 48.55995453 11.10142517 48.56266785 C8.81558143 48.5629973 6.53164326 48.53150456 4.24609375 48.49609375 C3.08743301 48.48736237 3.08743301 48.48736237 1.90536499 48.47845459 C-9.17480968 48.39320358 -19.85927706 47.91825168 -30.62890625 45.05859375 C-31.90378906 44.75695312 -33.17867187 44.4553125 -34.4921875 44.14453125 C-35.52730469 43.78617187 -36.56242187 43.4278125 -37.62890625 43.05859375 C-38.12390625 41.57359375 -38.12390625 41.57359375 -38.62890625 40.05859375 C-31.76054009 26.32186143 -19.36551663 13.74956254 -7.62890625 4.05859375 C-6.42427734 2.93324219 -6.42427734 2.93324219 -5.1953125 1.78515625 C-2.62890625 0.05859375 -2.62890625 0.05859375 0 0 Z " fill="#FDC131" transform="translate(96.62890625,291.94140625)"/>
<path d="M0 0 C3.32392232 2.84120009 6.64261195 5.68645155 9.9296875 8.5703125 C19.17256042 16.58734021 29.04761915 24.85460998 39.9375 30.53125 C42 32 42 32 42.6184082 34.1796875 C43.30601674 39.26174372 43.18592419 44.35965557 43.18530273 49.48046875 C43.18746321 51.46618788 43.20589558 53.45186787 43.22460938 55.4375 C43.24261894 67.44387488 41.8561556 78.61148713 38 90 C26.91727926 86.74230218 17.51761051 78.58246571 9 71 C8.35434082 70.43297363 7.70868164 69.86594727 7.04345703 69.28173828 C4.91428526 67.38600881 2.82938788 65.45010959 0.75 63.5 C0.06897217 62.89534912 -0.61205566 62.29069824 -1.3137207 61.66772461 C-5.83313134 57.30482025 -5.83313134 57.30482025 -6.26367188 53.93823242 C-6.02646121 51.55677625 -5.55268607 49.32838612 -5 47 C-4.67866493 45.14343463 -4.36666531 43.28523673 -4.0625 41.42578125 C-3.89008789 40.43827881 -3.71767578 39.45077637 -3.54003906 38.43334961 C-1.31937818 25.60029893 -0.25845063 13.01298932 0 0 Z " fill="#FEC131" transform="translate(299,358)"/>
<path d="M0 0 C0.99 0.495 0.99 0.495 2 1 C0.76636719 1.81791016 0.76636719 1.81791016 -0.4921875 2.65234375 C-21.74693069 16.84573989 -21.74693069 16.84573989 -34.39453125 37.87890625 C-35.16382846 40.57392811 -36.50050834 42.26557396 -38.1875 44.5 C-45.44271333 54.6840597 -49.25316668 64.92801973 -52 77 C-52.29003906 78.18335938 -52.29003906 78.18335938 -52.5859375 79.390625 C-56.28318543 102.69026288 -48.25335762 124.16870752 -35 143 C-26.88789869 154.10563299 -15.07868282 160.94117685 -3 167 C-3.33 167.66 -3.66 168.32 -4 169 C6.41099618 174.78480499 16.34743324 180.20925922 28 183 C29.22589844 183.31517578 29.22589844 183.31517578 30.4765625 183.63671875 C35.61586162 184.88180668 40.73918806 185.49897029 46 186 C46 186.33 46 186.66 46 187 C14.40135008 187.7001178 -11.8600823 182.67587506 -36 161 C-36.69480469 160.38769531 -37.38960937 159.77539062 -38.10546875 159.14453125 C-53.62965192 144.61191267 -65.11938908 122.3949836 -66.140625 101.0625 C-66.94192182 73.62609699 -66.94192182 73.62609699 -62 61 C-61.76394043 60.36239746 -61.52788086 59.72479492 -61.28466797 59.06787109 C-52.06062588 34.40500678 -33.21438375 14.78109208 -9.35107422 3.77514648 C-6.25301842 2.39671791 -3.21199065 1.09706709 0 0 Z " fill="#4A1F0A" transform="translate(223,162)"/>
<path d="M0 0 C0.8559375 0.20496094 1.711875 0.40992188 2.59375 0.62109375 C17.89520433 3.81909771 33.42860185 3.74206799 49 4 C47.73888071 6.63007775 46.46675409 9.25376131 45.1875 11.875 C44.83107422 12.62136719 44.47464844 13.36773437 44.10742188 14.13671875 C43.75615234 14.85214844 43.40488281 15.56757813 43.04296875 16.3046875 C42.56380005 17.2944458 42.56380005 17.2944458 42.07495117 18.30419922 C41 20 41 20 38 22 C35.37133789 21.84960938 35.37133789 21.84960938 32.22265625 21.34375 C20.15667733 19.36925841 20.15667733 19.36925841 8.75 22.33984375 C4.81397671 26.28449867 2.53591909 31.168635 0.28027344 36.20703125 C-1.05569914 39.12150996 -2.55158318 41.89021063 -4.1171875 44.6875 C-14.19569549 62.84904497 -20.70221317 80.71444616 -25 101 C-24.01 101.66 -23.02 102.32 -22 103 C-26.95 103 -31.9 103 -37 103 C-37.21671676 96.29532515 -36.47067336 90.4035973 -35 83.875 C-33.71807129 78.13230583 -32.74430998 72.89685101 -33 67 C-33.66 66.67 -34.32 66.34 -35 66 C-38.25124726 58.41375639 -37.13886746 52.59539279 -34.36328125 45.13671875 C-32.61933252 42.40336644 -30.98282896 42.09116267 -28 41 C-27.525625 40.01 -27.05125 39.02 -26.5625 38 C-26.046875 37.01 -25.53125 36.02 -25 35 C-23.65035156 34.7525 -23.65035156 34.7525 -22.2734375 34.5 C-16.94109412 32.05653955 -15.49502753 27.13356006 -13.0625 22 C-9.26475863 14.16307146 -5.21782524 6.98931508 0 0 Z " fill="#007D32" transform="translate(63,345)"/>
<path d="M0 0 C0 1.65 0 3.3 0 5 C-1.134375 4.95875 -2.26875 4.9175 -3.4375 4.875 C-7.23862705 4.88822131 -10.61646691 5.40411673 -14.296875 6.32421875 C-16.31757725 6.82939431 -18.35159252 7.2818413 -20.390625 7.70703125 C-42.01089492 12.49937853 -65.03413778 22.79230678 -80.72265625 38.7734375 C-83 41 -83 41 -85 41 C-85.26039063 41.58136719 -85.52078125 42.16273437 -85.7890625 42.76171875 C-87.07763664 45.14350256 -88.5311492 46.83579532 -90.375 48.8125 C-92.70041282 51.38826783 -94.57709012 53.80174767 -96.1875 56.875 C-98.11524508 60.19869841 -98.6608748 60.57401462 -102 62 C-102.64912354 62.28697754 -103.29824707 62.57395508 -103.96704102 62.86962891 C-106.1632685 63.79360811 -108.36195263 64.71135502 -110.5625 65.625 C-111.71395508 66.11226562 -111.71395508 66.11226562 -112.88867188 66.609375 C-113.62794922 66.91617188 -114.36722656 67.22296875 -115.12890625 67.5390625 C-116.13546265 67.95986084 -116.13546265 67.95986084 -117.16235352 68.38916016 C-119 69 -119 69 -122 69 C-122.83690844 61.68867491 -122.88452603 56.28823706 -118.4375 50.1875 C-116.98448485 48.43630088 -115.50659304 46.70532367 -114 45 C-113.20916016 43.97326172 -113.20916016 43.97326172 -112.40234375 42.92578125 C-90.2484075 14.99255729 -50.49836183 4.45301831 -16.87646484 0.29589844 C-11.24036766 -0.28388002 -5.65777451 -0.37032706 0 0 Z " fill="#007D32" transform="translate(477,45)"/>
<path d="M0 0 C19.69314846 2.23324364 36.24137163 13.40839596 50 27 C50.65355469 27.58136719 51.30710937 28.16273438 51.98046875 28.76171875 C66.01175828 41.50867972 76.12168058 63.84335117 77.14526367 82.67211914 C77.17008774 85.80235426 77.18565971 88.93215914 77.1875 92.0625 C77.19974609 93.13177734 77.21199219 94.20105469 77.22460938 95.30273438 C77.2596223 114.61820043 71.36320784 134.65426544 58.75390625 149.67578125 C56.63990369 151.98049465 56.63990369 151.98049465 57.0625 155.5 C57 159 57 159 54.8125 162 C53.4203125 162.99 53.4203125 162.99 52 164 C51.2471875 163.77441406 50.494375 163.54882812 49.71875 163.31640625 C46.7796922 162.67431559 46.7796922 162.67431559 44.01171875 165.02734375 C42.89513755 165.9875901 41.78754464 166.95835322 40.6875 167.9375 C35.51313767 172.28261964 30.31014324 175.75259113 24.25 178.75 C23.2129895 179.27001587 23.2129895 179.27001587 22.1550293 179.80053711 C20.46975783 180.60681145 18.73749906 181.31347598 17 182 C16.34 181.67 15.68 181.34 15 181 C15.64324219 180.62230469 16.28648437 180.24460937 16.94921875 179.85546875 C41.5811063 164.85145165 57.54320045 142.98381677 64.421875 114.94921875 C69.27105348 90.21185554 65.49190538 66.74608752 53 45 C52.45601563 44.01773438 51.91203125 43.03546875 51.3515625 42.0234375 C39.96715154 22.75323943 20.92229956 8.45241201 0 1 C0 0.67 0 0.34 0 0 Z " fill="#8D5022" transform="translate(277,160)"/>
<path d="M0 0 C-0.33 0.99 -0.66 1.98 -1 3 C-1.67240723 3.08975098 -2.34481445 3.17950195 -3.03759766 3.27197266 C-33.02499115 7.35954301 -66.60315038 14.51622231 -91.50390625 33.00390625 C-93 34 -93 34 -95 34 C-95 34.66 -95 35.32 -95 36 C-93.99066406 36.37898438 -93.99066406 36.37898438 -92.9609375 36.765625 C-90.10976616 37.95423996 -87.38003676 39.30094648 -84.63525391 40.71557617 C-62.14975063 52.28602521 -39.9858964 57.5807045 -15 61 C-14.13391113 61.12004395 -13.26782227 61.24008789 -12.37548828 61.36376953 C-8.25323637 61.93326326 -4.1291196 62.48215662 0 63 C0.495 62.01 0.495 62.01 1 61 C1 62.65 1 64.3 1 66 C-14.31645071 66.36872937 -28.95264741 65.9882181 -44 63 C-44.72590332 62.86078125 -45.45180664 62.7215625 -46.19970703 62.578125 C-69.16438759 58.06767171 -91.68767861 48.73215968 -110 34 C-106.63424057 24.83540204 -89.50141657 18.87177919 -81.02197266 14.91845703 C-55.71201778 3.42171105 -27.60669395 -0.74837423 0 0 Z " fill="#F8B002" transform="translate(152,223)"/>
<path d="M0 0 C0.1953125 2.01822917 0.390625 4.03645833 0.5859375 6.0546875 C0.86374749 8.22668245 0.86374749 8.22668245 3 10 C2.5625 12.0625 2.5625 12.0625 2 14 C2.495 14.495 2.495 14.495 3 15 C3.93549143 21.14751513 1.84116349 25.30855687 -1.2109375 30.6171875 C-3.79288065 34.05602008 -5.99089517 34.63841723 -10 36 C-10.495 36.86625 -10.99 37.7325 -11.5 38.625 C-11.995 39.40875 -12.49 40.1925 -13 41 C-14.08925781 41.0928125 -15.17851562 41.185625 -16.30078125 41.28125 C-20.29136086 42.05661077 -21.28606328 42.88325812 -23.56103516 46.15234375 C-23.93276855 46.72082031 -24.30450195 47.28929687 -24.6875 47.875 C-29.69475795 54.92384381 -35.36945158 60.4822709 -42 66 C-42.66386719 66.59167969 -43.32773437 67.18335938 -44.01171875 67.79296875 C-50.10201765 72.50931736 -57.70467299 71.42746057 -65 71 C-62.06900353 63.73622614 -58.28315363 60.49101474 -52 56 C-43.89963432 49.63661995 -37.6623445 41.83639212 -31.6875 33.5 C-31.1291748 32.7275293 -30.57084961 31.95505859 -29.99560547 31.15917969 C-25.86830129 25.38354593 -22.03727832 19.46474959 -18.51049805 13.30273438 C-14.40092985 6.3701829 -8.45204088 0 0 0 Z " fill="#06E15F" transform="translate(465,92)"/>
<path d="M0 0 C2.33333333 2.33333333 4.66666667 4.66666667 7 7 C6.66990264 10.7548575 4.52629798 13.47882827 2.5 16.5625 C-13.70724727 42.30994758 -22 72.60433765 -22 103 C-27.445 103.99 -27.445 103.99 -33 105 C-33.35607927 91.62724519 -32.85997011 79.082842 -30 66 C-29.73461426 64.77168457 -29.73461426 64.77168457 -29.46386719 63.51855469 C-24.34882974 40.38162366 -15.19482348 18.38793856 0 0 Z " fill="#FAB102" transform="translate(255,48)"/>
<path d="M0 0 C0.07516846 0.83023682 0.15033691 1.66047363 0.2277832 2.51586914 C1.89331972 22.49165929 1.89331972 22.49165929 5.44921875 42.1875 C6.06371178 45.32533676 6.38668886 47.81402005 6 51 C4.06640625 53.7734375 4.06640625 53.7734375 1.5625 56.375 C0.73878906 57.24898438 -0.08492187 58.12296875 -0.93359375 59.0234375 C-3 61 -3 61 -4 61 C-4.14695312 59.83984375 -4.14695312 59.83984375 -4.296875 58.65625 C-5.42798649 50.77747343 -6.65057012 44.18604306 -12.5625 38.5625 C-18.19079183 34.95462062 -24.53973754 35.2171516 -31 36 C-34.40888423 37.32267793 -37.46583978 38.87316925 -40.63671875 40.6875 C-43 42 -43 42 -45 42 C-45.47388805 38.88312659 -45.62784408 36.10301104 -45 33 C-42.84844467 30.49326728 -40.19608699 29.119692 -37.3125 27.5625 C-35.74206058 26.63350767 -34.17437492 25.69984558 -32.609375 24.76171875 C-31.82755859 24.30200684 -31.04574219 23.84229492 -30.24023438 23.36865234 C-21.82751355 18.22897133 -14.31975988 11.59896744 -7.12109375 4.91015625 C-1.66871166 0 -1.66871166 0 0 0 Z " fill="#EC8D03" transform="translate(212,359)"/>
<path d="M0 0 C2.87192801 2.67885722 4.33787273 5.43829872 6 9 C5.64550781 9.391875 5.29101562 9.78375 4.92578125 10.1875 C-16.49684683 34.25553736 -42.92818748 65.5172435 -46 99 C-45.34 99.33 -44.68 99.66 -44 100 C-49.445 100.495 -49.445 100.495 -55 101 C-53.35057278 62.51336484 -26.97806672 25.75179096 0 0 Z " fill="#F9B102" transform="translate(159,302)"/>
<path d="M0 0 C2.33333333 2.33333333 4.66666667 4.66666667 7 7 C6.86328125 9.30078125 6.86328125 9.30078125 6.3125 12.3125 C6.11269531 13.48167969 5.91289062 14.65085937 5.70703125 15.85546875 C5.59311035 16.51208496 5.47918945 17.16870117 5.36181641 17.84521484 C4.67614238 21.92872292 4.08891978 26.02659907 3.5 30.125 C3.30857422 31.45337891 3.30857422 31.45337891 3.11328125 32.80859375 C1.83679515 41.84819943 0.88258207 50.91459637 0 60 C-3.58146826 57.68855594 -6.84380615 55.36670297 -9.9375 52.4375 C-18.80345972 44.42374889 -28.74328561 37.56501672 -38.92578125 31.33984375 C-41 30 -41 30 -43 28 C-43.1953125 25.3984375 -43.1953125 25.3984375 -43.125 22.375 C-43.10695312 21.37210938 -43.08890625 20.36921875 -43.0703125 19.3359375 C-43.04710937 18.56507812 -43.02390625 17.79421875 -43 17 C-40.87479164 18.0455048 -38.79054054 19.11897009 -36.73046875 20.2890625 C-29.06906108 24.31394948 -21.57993481 25.39628569 -13 24 C-7.08904735 20.78737258 -4.44725389 17.13198711 -2 11 C-1.09358175 7.35554115 -0.46648634 3.72492828 0 0 Z " fill="#ED8D03" transform="translate(212,93)"/>
<path d="M0 0 C0.66 0.66 1.32 1.32 2 2 C2.70382812 2.69609375 2.70382812 2.69609375 3.421875 3.40625 C4.47426465 4.46905935 5.50589376 5.55283236 6.515625 6.65625 C28.55127667 30.08153736 62.94132296 49.00012782 95 53 C95 55.31 95 57.62 95 60 C88.29658584 60.25190283 82.46898531 59.7100792 76 58 C74.34871094 57.61521484 74.34871094 57.61521484 72.6640625 57.22265625 C62.91575472 54.84178024 54.02775489 51.36016101 45 47 C44.37625488 46.70109863 43.75250977 46.40219727 43.10986328 46.09423828 C24.29860767 36.94348542 4.41926685 23.2531493 -9 7 C-9 6.34 -9 5.68 -9 5 C-6.03 3.35 -3.06 1.7 0 0 Z " fill="#FBB202" transform="translate(312,342)"/>
<path d="M0 0 C3.96 0.33 7.92 0.66 12 1 C11.34 1.66 10.68 2.32 10 3 C12.11845292 35.69786022 36.29625398 68.95274784 59 91 C57.35 93.64 55.7 96.28 54 99 C34.23900047 83.2810231 19.68671433 61.10783653 9.5078125 38.2421875 C8.1566112 35.33675465 6.81937623 32.63712777 5 30 C4.13375 29.690625 3.2675 29.38125 2.375 29.0625 C1.199375 28.5365625 1.199375 28.5365625 0 28 C-0.8125 24.875 -0.8125 24.875 -1 22 C-0.01 21.34 0.98 20.68 2 20 C1.90912109 19.09121094 1.90912109 19.09121094 1.81640625 18.1640625 C1.2109375 12.109375 0.60546875 6.0546875 0 0 Z " fill="#FAB202" transform="translate(104,109)"/>
<path d="M0 0 C1.77866871 0.18624803 3.54874348 0.45417298 5.3125 0.75 C7.08947266 1.03423828 7.08947266 1.03423828 8.90234375 1.32421875 C11.0041219 1.6679025 13.10448545 2.01789658 15.20361328 2.37744141 C28.8009924 4.69514368 42.21414846 5.66041928 56 6 C52.55338083 10.74234624 49.03003559 15.16228176 44.9375 19.375 C38.31596606 26.36905343 32.86567713 34.20347613 27.359375 42.08398438 C26.68648437 43.03241211 26.68648437 43.03241211 26 44 C25.4949292 44.73250977 24.9898584 45.46501953 24.46948242 46.21972656 C23 48 23 48 20.73828125 48.390625 C19.93777344 48.34421875 19.13726562 48.2978125 18.3125 48.25 C17.50425781 48.21390625 16.69601563 48.1778125 15.86328125 48.140625 C15.24839844 48.09421875 14.63351563 48.0478125 14 48 C14.268125 47.360625 14.53625 46.72125 14.8125 46.0625 C15.204375 45.051875 15.59625 44.04125 16 43 C16.26425781 42.40316406 16.52851562 41.80632812 16.80078125 41.19140625 C19.62251503 34.11701208 20.04960887 26.5125548 19 19 C15.88787133 13.51826299 12.7395014 10.00097166 6.75 7.8125 C2.50830101 6.89346522 -1.6803937 6.37221097 -6 6 C-4 4 -2 2 0 0 Z " fill="#ED8D03" transform="translate(94,292)"/>
<path d="M0 0 C0.25523437 0.97839844 0.25523437 0.97839844 0.515625 1.9765625 C2.82855026 10.31785678 5.81024447 15.82337602 13 21 C19.51785034 24.25892517 27.56354286 24.14150833 34.375 21.87890625 C36.46809423 20.99085065 38.54575107 20.06499949 40.6015625 19.09375 C43 18 43 18 45 18 C45.60546875 20.578125 45.60546875 20.578125 45 24 C42.08793624 26.72536192 38.7097308 28.68252101 35.3125 30.75 C33.37156244 31.98623693 31.43275428 33.22582347 29.49609375 34.46875 C28.54976074 35.07074219 27.60342773 35.67273438 26.62841797 36.29296875 C17.74053644 42.06522099 9.75781508 48.92112745 2.046875 56.1640625 C0 58 0 58 -1 58 C-1.02187378 57.16529175 -1.02187378 57.16529175 -1.04418945 56.3137207 C-1.40160653 43.96072993 -2.35595112 31.90822301 -4.28125 19.69921875 C-4.52176421 18.13295516 -4.76135304 16.56654918 -5 15 C-5.13196777 14.18233154 -5.26393555 13.36466309 -5.39990234 12.5222168 C-5.51285645 11.72855713 -5.62581055 10.93489746 -5.7421875 10.1171875 C-5.84901855 9.41062012 -5.95584961 8.70405273 -6.06591797 7.97607422 C-5.98123272 5.43739851 -5.216182 4.38770628 -3.625 2.4375 C-1 0 -1 0 0 0 Z " fill="#EC8D03" transform="translate(300,96)"/>
<path d="M0 0 C0.28571429 7.42857143 0.28571429 7.42857143 -2 11 C-2.969375 10.95617187 -3.93875 10.91234375 -4.9375 10.8671875 C-9.4934162 10.87404882 -13.62578282 11.93012455 -18 13.125 C-18.83595703 13.3516333 -19.67191406 13.5782666 -20.53320312 13.81176758 C-45.28843046 20.72991892 -66.60492768 33.59808405 -85.79052734 50.47241211 C-91.09736552 55.10921238 -91.09736552 55.10921238 -94 56 C-96.64564072 55.06434658 -98.62963376 53.54985485 -101 52 C-101 51.34 -101 50.68 -101 50 C-99.45111498 48.58293498 -97.83238466 47.24190504 -96.1875 45.9375 C-91.73314313 42.38969493 -91.73314313 42.38969493 -87.34765625 38.7578125 C-64.78093421 19.68638726 -30.71804296 -1.20557468 0 0 Z " fill="#FAB102" transform="translate(407,109)"/>
<path d="M0 0 C4.04160556 -0.05831395 8.08310205 -0.09370212 12.125 -0.125 C13.83816406 -0.15013672 13.83816406 -0.15013672 15.5859375 -0.17578125 C16.69453125 -0.18222656 17.803125 -0.18867188 18.9453125 -0.1953125 C20.46922607 -0.21102295 20.46922607 -0.21102295 22.02392578 -0.22705078 C26.07924432 0.08233775 29.63219104 0.65503284 32.6081543 3.58129883 C33.00945557 4.20029053 33.41075684 4.81928223 33.82421875 5.45703125 C34.28981201 6.15111084 34.75540527 6.84519043 35.23510742 7.56030273 C35.71439697 8.30352783 36.19368652 9.04675293 36.6875 9.8125 C41.99804675 17.68647236 47.71075155 24.89408795 54 32 C54.86367187 32.98613281 55.72734375 33.97226563 56.6171875 34.98828125 C60.33842205 39.57334542 60.33842205 39.57334542 65 43 C65 43.66 65 44.32 65 45 C63.78570312 45.02578125 62.57140625 45.0515625 61.3203125 45.078125 C46.03213588 45.5377379 30.16547777 46.7534942 15.3359375 50.7109375 C14.56507812 50.80632812 13.79421875 50.90171875 13 51 C10.1875 48.5625 10.1875 48.5625 8 46 C8.64066406 45.85304687 9.28132813 45.70609375 9.94140625 45.5546875 C17.67409295 43.54949005 23.05199169 40.50261047 27.4375 33.6875 C29.29858232 29.48792729 29.45598885 25.15742116 29.5625 20.625 C29.60298462 19.58218872 29.60298462 19.58218872 29.64428711 18.51831055 C29.5927702 11.47030633 27.54933714 9.09867427 24 2 C16.08 1.67 8.16 1.34 0 1 C0 0.67 0 0.34 0 0 Z " fill="#EA8D04" transform="translate(85,169)"/>
<path d="M0 0 C3.63 0.66 7.26 1.32 11 2 C10.97679687 3.41410156 10.95359375 4.82820313 10.9296875 6.28515625 C10.80041952 17.41199568 11.0338194 28.02309457 13 39 C13.12358887 39.7439502 13.24717773 40.48790039 13.37451172 41.25439453 C17.02496249 63.05532899 23.89661733 88.89661733 40 105 C38.35 106.98 36.7 108.96 35 111 C30.95118417 107.23935612 28.0126701 103.32402681 25.125 98.625 C24.69155273 97.92165527 24.25810547 97.21831055 23.81152344 96.49365234 C6.42769369 67.75436016 -1.0100469 33.38766149 0 0 Z " fill="#F9B102" transform="translate(221,353)"/>
<path d="M0 0 C3.32392232 2.84120009 6.64261195 5.68645155 9.9296875 8.5703125 C19.21001564 16.61982789 29.08848801 24.75607635 39.94921875 30.58203125 C42 32 42 32 42.70703125 34.04296875 C42.8046875 36.02864583 42.90234375 38.01432292 43 40 C39.71007678 38.93077495 36.59011512 37.81303497 33.4375 36.375 C26.60047037 33.81603498 18.20619584 33.58943029 11.5 36.625 C4.99346092 40.56172953 2.42809159 45.71134127 -0.10546875 52.6328125 C-0.94131701 54.8447079 -1.90500648 56.90648817 -3 59 C-4.51171875 57.74731445 -4.51171875 57.74731445 -6 56 C-5.85200385 52.87666454 -5.52940958 50.06407205 -5 47 C-4.77570313 45.65349365 -4.77570313 45.65349365 -4.546875 44.27978516 C-4.21598996 42.33016516 -3.88015381 40.38138066 -3.54003906 38.43334961 C-1.31937818 25.60029893 -0.25845063 13.01298932 0 0 Z " fill="#EC8C03" transform="translate(299,358)"/>
<path d="M0 0 C2.8125 2.5625 2.8125 2.5625 5 5 C3.83984375 5.23783203 3.83984375 5.23783203 2.65625 5.48046875 C-6.34312382 7.49641759 -13.73702757 10.00028191 -19 18 C-22.12970785 27.38912356 -18.76064597 35.30493068 -15 44 C-14.32867504 45.66479579 -13.66027817 47.33079211 -13 49 C-16.203125 48.91796875 -16.203125 48.91796875 -20 48 C-21.94565316 45.73924893 -23.28722464 43.85244985 -24.75 41.3125 C-25.60715876 39.93319062 -26.46927882 38.55695395 -27.3359375 37.18359375 C-27.77389648 36.48347168 -28.21185547 35.78334961 -28.66308594 35.06201172 C-34.53164379 26.01054356 -41.79754211 17.89089767 -49.20458984 10.08544922 C-52.9108347 6.17833061 -52.9108347 6.17833061 -54 4 C-53.22624023 3.95512451 -52.45248047 3.91024902 -51.65527344 3.86401367 C-31.28201899 2.67401176 -31.28201899 2.67401176 -11.08105469 -0.12231445 C-7.12437386 -0.81097726 -3.84614749 -1.3310893 0 0 Z " fill="#EB8C03" transform="translate(415,294)"/>
<path d="M0 0 C0 0.33 0 0.66 0 1 C-0.77730469 1.07992187 -1.55460937 1.15984375 -2.35546875 1.2421875 C-5.0754203 1.73982775 -5.0754203 1.73982775 -6.36328125 3.7578125 C-10.0342613 12.91260226 -11.04893526 23.30424706 -7.125 32.5625 C-2.6132215 40.25680781 5.89977065 43.29992355 14 46 C13.505 46.99 13.505 46.99 13 48 C7.93194784 48.14386729 3.40047616 47.63662582 -1.5625 46.625 C-2.98528472 46.34694309 -4.40847114 46.07093453 -5.83203125 45.796875 C-6.53666504 45.66087891 -7.24129883 45.52488281 -7.96728516 45.38476562 C-19.93470918 43.11949295 -31.85740069 42.464204 -44 42 C-40.72759492 38.11245429 -37.39663213 34.33202474 -33.86474609 30.67529297 C-25.16941072 21.61108261 -17.95660557 11.43490836 -11 1 C-7.47639547 -0.43554259 -3.74800535 -0.07207703 0 0 Z " fill="#EB8C03" transform="translate(405,172)"/>
<path d="M0 0 C38.87279769 -0.7303866 79.63426522 7.6492239 111 32 C110.01 32.99 109.02 33.98 108 35 C108 34.34 108 33.68 108 33 C107.31550781 32.73703125 106.63101563 32.4740625 105.92578125 32.203125 C103.24891769 31.10235868 100.64697506 29.89597297 98.0402832 28.63964844 C67.25564405 13.85782935 35.79943587 10.1124277 2 11 C1.34 7.37 0.68 3.74 0 0 Z " fill="#F9B102" transform="translate(359,223)"/>
<path d="M0 0 C-15.43599031 16.69511943 -34.64248945 27.34794598 -55.75048828 35.16357422 C-57.25918526 35.7245462 -58.76282466 36.29929873 -60.26123047 36.88720703 C-63.31368344 38.07825538 -65.69242801 39 -69 39 C-69.51033663 33.64146537 -68.36465523 31.15633882 -65 27 C-62.60885036 25.37998375 -60.0736317 24.22985017 -57.4375 23.0625 C-55.99906722 22.38624384 -54.5628699 21.70521303 -53.12890625 21.01953125 C-52.07533936 20.51607178 -52.07533936 20.51607178 -51.00048828 20.00244141 C-45.44206433 17.21712425 -40.23772765 13.67749541 -35.26953125 9.953125 C-31.22133827 7.53484962 -27.37151379 6.56116146 -22.8125 5.5 C-16.33247993 3.90972699 -10.12411545 2.13185374 -3.93359375 -0.3984375 C-2 -1 -2 -1 0 0 Z " fill="#06DE5E" transform="translate(152,401)"/>
<path d="M0 0 C7.413686 6.65330795 7.98103783 17.69526647 9 27 C32.53253975 25.54223205 55.73602179 21.99370557 78.0625 14.25 C81.14398042 13.18642933 83.7034678 12.68098075 87 13 C84.87768059 15.33541693 83.01199361 16.63830695 80.11328125 17.8671875 C79.34902832 18.19291748 78.58477539 18.51864746 77.79736328 18.85424805 C76.56735596 19.35952026 76.56735596 19.35952026 75.3125 19.875 C74.45382324 20.22796143 73.59514648 20.58092285 72.71044922 20.94458008 C70.147347 21.98211664 67.57705561 22.99766885 65 24 C64.34338379 24.25604004 63.68676758 24.51208008 63.01025391 24.77587891 C40.71629393 33.19723666 16.59012231 34.92739685 -7 34 C-6.73445313 33.01902344 -6.46890625 32.03804688 -6.1953125 31.02734375 C-3.99993465 22.70981999 -2.36662645 14.56070554 -1.39453125 6.01171875 C-1 3 -1 3 0 0 Z " fill="#F9F296" transform="translate(364,255)"/>
<path d="M0 0 C10.04218988 8.36849157 18.15940776 17.59019161 26 28 C26.94359375 29.25103516 26.94359375 29.25103516 27.90625 30.52734375 C49 59.63074882 49 59.63074882 49 71 C45.79717223 70.73309769 44.35684367 70.37757318 42.1171875 68.0078125 C39.4427904 64.20839227 37.44893925 60.21120429 35.375 56.0625 C30.93828887 47.42550393 25.93967731 39.66688557 20 32 C19.29488281 31.08347656 18.58976562 30.16695313 17.86328125 29.22265625 C11.38063949 21.06243622 4.16724368 13.55466226 -3 6 C-1.125 1.125 -1.125 1.125 0 0 Z " fill="#F9F296" transform="translate(351,302)"/>
<path d="M0 0 C0.66 0 1.32 0 2 0 C12.31560112 24.03428716 16.75879098 47.83576287 16 74 C13.69 73.67 11.38 73.34 9 73 C8.23048737 69.50300578 7.80958274 66.13557888 7.60546875 62.5625 C6.92290728 51.75347976 6.11282693 41.08481176 4.0625 30.4375 C3.90483154 29.61314453 3.74716309 28.78878906 3.5847168 27.93945312 C2.76444441 23.92978077 1.73946611 20.11401991 0.38671875 16.25 C-0.76488923 12.92381893 -1.36376602 10.11768814 -1.25 6.5625 C-1.23453125 5.73878906 -1.2190625 4.91507812 -1.203125 4.06640625 C-1 2 -1 2 0 0 Z " fill="#F7F095" transform="translate(274,79)"/>
<path d="M0 0 C2.89852365 1.31307372 4.98277217 2.72684638 7.234375 4.96875 C7.80800781 5.53980469 8.38164062 6.11085937 8.97265625 6.69921875 C9.55917969 7.29347656 10.14570313 7.88773438 10.75 8.5 C11.35199219 9.09425781 11.95398438 9.68851563 12.57421875 10.30078125 C13.14269531 10.87183594 13.71117187 11.44289062 14.296875 12.03125 C14.81604492 12.55267578 15.33521484 13.07410156 15.87011719 13.61132812 C17 15 17 15 17 17 C15.49609375 18.48046875 15.49609375 18.48046875 13.4375 20.1875 C9.41324753 23.60201725 5.67809995 27.21845349 2 31 C-2.04135587 29.40069566 -4.67907152 26.51339591 -7.625 23.4375 C-10.96402902 19.77285984 -10.96402902 19.77285984 -15 17 C-13.67879172 14.06769807 -12.25361803 12.01335101 -9.9609375 9.765625 C-9.38085938 9.19199219 -8.80078125 8.61835938 -8.203125 8.02734375 C-7.59984375 7.44082031 -6.9965625 6.85429687 -6.375 6.25 C-5.76398438 5.64800781 -5.15296875 5.04601562 -4.5234375 4.42578125 C-3.02011376 2.94594695 -1.51065144 1.47235324 0 0 Z " fill="#8C4F22" transform="translate(232,193)"/>
<path d="M0 0 C2.93230193 1.32120828 4.98664899 2.74638197 7.234375 5.0390625 C7.80800781 5.61914062 8.38164062 6.19921875 8.97265625 6.796875 C9.55917969 7.40015625 10.14570313 8.0034375 10.75 8.625 C11.35199219 9.23601562 11.95398438 9.84703125 12.57421875 10.4765625 C14.05405305 11.97988624 15.52764676 13.48934856 17 15 C12.30233025 20.66129431 7.25276628 25.85228904 2 31 C-0.93230193 29.67879172 -2.98664899 28.25361803 -5.234375 25.9609375 C-5.80800781 25.38085938 -6.38164062 24.80078125 -6.97265625 24.203125 C-7.55917969 23.59984375 -8.14570313 22.9965625 -8.75 22.375 C-9.35199219 21.76398438 -9.95398438 21.15296875 -10.57421875 20.5234375 C-12.05405305 19.02011376 -13.52764676 17.51065144 -15 16 C-10.30233025 10.33870569 -5.25276628 5.14771096 0 0 Z " fill="#8D5022" transform="translate(277,283)"/>
<path d="M0 0 C2.93230193 1.32120828 4.98664899 2.74638197 7.234375 5.0390625 C7.80800781 5.61914062 8.38164062 6.19921875 8.97265625 6.796875 C9.55917969 7.40015625 10.14570313 8.0034375 10.75 8.625 C11.35199219 9.23601562 11.95398438 9.84703125 12.57421875 10.4765625 C14.05405305 11.97988624 15.52764676 13.48934856 17 15 C12.30233025 20.66129431 7.25276628 25.85228904 2 31 C-0.93230193 29.67879172 -2.98664899 28.25361803 -5.234375 25.9609375 C-5.80800781 25.38085938 -6.38164062 24.80078125 -6.97265625 24.203125 C-7.55917969 23.59984375 -8.14570313 22.9965625 -8.75 22.375 C-9.35199219 21.76398438 -9.95398438 21.15296875 -10.57421875 20.5234375 C-12.05405305 19.02011376 -13.52764676 17.51065144 -15 16 C-10.30233025 10.33870569 -5.25276628 5.14771096 0 0 Z " fill="#8D5022" transform="translate(232,283)"/>
<path d="M0 0 C5.66129431 4.69766975 10.85228904 9.74723372 16 15 C14.67879172 17.93230193 13.25361803 19.98664899 10.9609375 22.234375 C10.38085938 22.80800781 9.80078125 23.38164062 9.203125 23.97265625 C8.59984375 24.55917969 7.9965625 25.14570313 7.375 25.75 C6.76398438 26.35199219 6.15296875 26.95398438 5.5234375 27.57421875 C4.02011376 29.05405305 2.51065144 30.52764676 1 32 C-4.66129431 27.30233025 -9.85228904 22.25276628 -15 17 C-13.67879172 14.06769807 -12.25361803 12.01335101 -9.9609375 9.765625 C-9.38085938 9.19199219 -8.80078125 8.61835938 -8.203125 8.02734375 C-7.59984375 7.44082031 -6.9965625 6.85429687 -6.375 6.25 C-5.76398438 5.64800781 -5.15296875 5.04601562 -4.5234375 4.42578125 C-3.02011376 2.94594695 -1.51065144 1.47235324 0 0 Z " fill="#8D5022" transform="translate(300,260)"/>
<path d="M0 0 C5.66129431 4.69766975 10.85228904 9.74723372 16 15 C14.67879172 17.93230193 13.25361803 19.98664899 10.9609375 22.234375 C10.38085938 22.80800781 9.80078125 23.38164062 9.203125 23.97265625 C8.59984375 24.55917969 7.9965625 25.14570313 7.375 25.75 C6.76398438 26.35199219 6.15296875 26.95398438 5.5234375 27.57421875 C4.02011376 29.05405305 2.51065144 30.52764676 1 32 C-4.66129431 27.30233025 -9.85228904 22.25276628 -15 17 C-13.67879172 14.06769807 -12.25361803 12.01335101 -9.9609375 9.765625 C-9.38085938 9.19199219 -8.80078125 8.61835938 -8.203125 8.02734375 C-7.59984375 7.44082031 -6.9965625 6.85429687 -6.375 6.25 C-5.76398438 5.64800781 -5.15296875 5.04601562 -4.5234375 4.42578125 C-3.02011376 2.94594695 -1.51065144 1.47235324 0 0 Z " fill="#8D5022" transform="translate(255,260)"/>
<path d="M0 0 C5.66129431 4.69766975 10.85228904 9.74723372 16 15 C14.67879172 17.93230193 13.25361803 19.98664899 10.9609375 22.234375 C10.38085938 22.80800781 9.80078125 23.38164062 9.203125 23.97265625 C8.59984375 24.55917969 7.9965625 25.14570313 7.375 25.75 C6.76398438 26.35199219 6.15296875 26.95398438 5.5234375 27.57421875 C4.02011376 29.05405305 2.51065144 30.52764676 1 32 C-4.66129431 27.30233025 -9.85228904 22.25276628 -15 17 C-13.67879172 14.06769807 -12.25361803 12.01335101 -9.9609375 9.765625 C-9.38085938 9.19199219 -8.80078125 8.61835938 -8.203125 8.02734375 C-7.59984375 7.44082031 -6.9965625 6.85429687 -6.375 6.25 C-5.76398438 5.64800781 -5.15296875 5.04601562 -4.5234375 4.42578125 C-3.02011376 2.94594695 -1.51065144 1.47235324 0 0 Z " fill="#8D5022" transform="translate(210,260)"/>
<path d="M0 0 C2.93230193 1.32120828 4.98664899 2.74638197 7.234375 5.0390625 C7.80800781 5.61914062 8.38164062 6.19921875 8.97265625 6.796875 C9.55917969 7.40015625 10.14570313 8.0034375 10.75 8.625 C11.35199219 9.23601562 11.95398438 9.84703125 12.57421875 10.4765625 C14.05405305 11.97988624 15.52764676 13.48934856 17 15 C12.30233025 20.66129431 7.25276628 25.85228904 2 31 C-0.93230193 29.67879172 -2.98664899 28.25361803 -5.234375 25.9609375 C-5.80800781 25.38085938 -6.38164062 24.80078125 -6.97265625 24.203125 C-7.55917969 23.59984375 -8.14570313 22.9965625 -8.75 22.375 C-9.35199219 21.76398438 -9.95398438 21.15296875 -10.57421875 20.5234375 C-12.05405305 19.02011376 -13.52764676 17.51065144 -15 16 C-10.30233025 10.33870569 -5.25276628 5.14771096 0 0 Z " fill="#8D5022" transform="translate(277,238)"/>
<path d="M0 0 C2.93230193 1.32120828 4.98664899 2.74638197 7.234375 5.0390625 C7.80800781 5.61914062 8.38164062 6.19921875 8.97265625 6.796875 C9.55917969 7.40015625 10.14570313 8.0034375 10.75 8.625 C11.35199219 9.23601562 11.95398438 9.84703125 12.57421875 10.4765625 C14.05405305 11.97988624 15.52764676 13.48934856 17 15 C12.30233025 20.66129431 7.25276628 25.85228904 2 31 C-0.93230193 29.67879172 -2.98664899 28.25361803 -5.234375 25.9609375 C-5.80800781 25.38085938 -6.38164062 24.80078125 -6.97265625 24.203125 C-7.55917969 23.59984375 -8.14570313 22.9965625 -8.75 22.375 C-9.35199219 21.76398438 -9.95398438 21.15296875 -10.57421875 20.5234375 C-12.05405305 19.02011376 -13.52764676 17.51065144 -15 16 C-10.30233025 10.33870569 -5.25276628 5.14771096 0 0 Z " fill="#8D5022" transform="translate(232,238)"/>
<path d="M0 0 C2.29687732 0.94809405 3.52562808 1.99579634 5.25244141 3.77441406 C5.82607422 4.35771484 6.39970703 4.94101563 6.99072266 5.54199219 C7.57724609 6.15365234 8.16376953 6.7653125 8.76806641 7.39550781 C9.37005859 8.01103516 9.97205078 8.6265625 10.59228516 9.26074219 C12.07441021 10.77815594 13.54716311 12.30471378 15.01806641 13.83300781 C13.70499268 16.73153146 12.29122003 18.81577998 10.04931641 21.06738281 C9.47826172 21.64101562 8.90720703 22.21464844 8.31884766 22.80566406 C7.72458984 23.3921875 7.13033203 23.97871094 6.51806641 24.58300781 C5.92380859 25.185 5.32955078 25.78699219 4.71728516 26.40722656 C4.14623047 26.97570312 3.57517578 27.54417969 2.98681641 28.12988281 C2.46539062 28.64905273 1.94396484 29.16822266 1.40673828 29.703125 C0.01806641 30.83300781 0.01806641 30.83300781 -1.98193359 30.83300781 C-3.46240234 29.32910156 -3.46240234 29.32910156 -5.16943359 27.27050781 C-8.58395084 23.24625534 -12.20038709 19.51110776 -15.98193359 15.83300781 C-14.30551035 11.57985995 -11.26434269 8.71198967 -8.10693359 5.52050781 C-7.57712891 4.95783203 -7.04732422 4.39515625 -6.50146484 3.81542969 C-2.52732723 -0.21294553 -2.52732723 -0.21294553 0 0 Z " fill="#8C5022" transform="translate(300.98193359375,216.1669921875)"/>
<path d="M0 0 C5.66129431 4.69766975 10.85228904 9.74723372 16 15 C14.67879172 17.93230193 13.25361803 19.98664899 10.9609375 22.234375 C10.38085938 22.80800781 9.80078125 23.38164062 9.203125 23.97265625 C8.59984375 24.55917969 7.9965625 25.14570313 7.375 25.75 C6.76398438 26.35199219 6.15296875 26.95398438 5.5234375 27.57421875 C4.02011376 29.05405305 2.51065144 30.52764676 1 32 C-4.66129431 27.30233025 -9.85228904 22.25276628 -15 17 C-13.67879172 14.06769807 -12.25361803 12.01335101 -9.9609375 9.765625 C-9.38085938 9.19199219 -8.80078125 8.61835938 -8.203125 8.02734375 C-7.59984375 7.44082031 -6.9965625 6.85429687 -6.375 6.25 C-5.76398438 5.64800781 -5.15296875 5.04601562 -4.5234375 4.42578125 C-3.02011376 2.94594695 -1.51065144 1.47235324 0 0 Z " fill="#8D5022" transform="translate(255,215)"/>
<path d="M0 0 C4.25314786 1.67642324 7.12101814 4.7175909 10.3125 7.875 C10.87517578 8.40480469 11.43785156 8.93460938 12.01757812 9.48046875 C13.61328125 11.0546875 13.61328125 11.0546875 16 14 C15.72027572 17.31988556 14.39819944 18.96291316 12.05859375 21.234375 C11.47529297 21.80800781 10.89199219 22.38164062 10.29101562 22.97265625 C9.67935547 23.55917969 9.06769531 24.14570313 8.4375 24.75 C7.82197266 25.35199219 7.20644531 25.95398438 6.57226562 26.57421875 C5.05485187 28.05634381 3.52829404 29.5290967 2 31 C-1.9717011 29.17738456 -4.63426823 26.56017582 -7.625 23.4375 C-10.96402902 19.77285984 -10.96402902 19.77285984 -15 17 C-13.67879172 14.06769807 -12.25361803 12.01335101 -9.9609375 9.765625 C-9.38085938 9.19199219 -8.80078125 8.61835938 -8.203125 8.02734375 C-7.59984375 7.44082031 -6.9965625 6.85429687 -6.375 6.25 C-5.76398438 5.64800781 -5.15296875 5.04601562 -4.5234375 4.42578125 C-3.02011376 2.94594695 -1.51065144 1.47235324 0 0 Z " fill="#8C5022" transform="translate(277,193)"/>
<path d="M0 0 C2.29687732 0.94809405 3.52562808 1.99579634 5.25244141 3.77441406 C5.82607422 4.35771484 6.39970703 4.94101563 6.99072266 5.54199219 C7.57724609 6.15365234 8.16376953 6.7653125 8.76806641 7.39550781 C9.37005859 8.01103516 9.97205078 8.6265625 10.59228516 9.26074219 C12.07441021 10.77815594 13.54716311 12.30471378 15.01806641 13.83300781 C13.69685812 16.76530974 12.27168443 18.8196568 9.97900391 21.06738281 C9.39892578 21.64101562 8.81884766 22.21464844 8.22119141 22.80566406 C7.61791016 23.3921875 7.01462891 23.97871094 6.39306641 24.58300781 C5.78205078 25.185 5.17103516 25.78699219 4.54150391 26.40722656 C3.03818017 27.88706087 1.52871785 29.36065458 0.01806641 30.83300781 C-5.6432279 26.13533807 -10.83422263 21.0857741 -15.98193359 15.83300781 C-14.30551035 11.57985995 -11.26434269 8.71198967 -8.10693359 5.52050781 C-7.57712891 4.95783203 -7.04732422 4.39515625 -6.50146484 3.81542969 C-2.52732723 -0.21294553 -2.52732723 -0.21294553 0 0 Z " fill="#8C5022" transform="translate(210.98193359375,216.1669921875)"/>
<path d="M0 0 C22.09772102 6.31363458 41.45094836 20.82391602 58.75 35.4375 C59.37132812 35.95803955 59.99265625 36.4785791 60.6328125 37.01489258 C62.12853726 38.2980603 63.56996681 39.64400699 65 41 C65 41.66 65 42.32 65 43 C61.58721105 45.07205044 61.58721105 45.07205044 59.08984375 44.765625 C56.53314217 43.82896423 55.25759624 42.59314196 53.3125 40.6875 C41.63387361 29.9708692 27.67235945 21.53663736 13.96875 13.6875 C12.9470874 13.09424927 12.9470874 13.09424927 11.90478516 12.48901367 C10.58780742 11.72566081 9.26482078 10.97254739 7.93505859 10.23168945 C4.10210494 8.00532301 1.84480918 6.05992677 0 2 C0 1.34 0 0.68 0 0 Z " fill="#F9F296" transform="translate(140,118)"/>
<path d="M0 0 C4.03063348 0.40355549 4.83280968 1.37271783 7.38671875 4.4453125 C8.53333984 5.80849609 8.53333984 5.80849609 9.703125 7.19921875 C10.93869141 8.74416016 10.93869141 8.74416016 12.19921875 10.3203125 C12.87573486 11.16311768 12.87573486 11.16311768 13.56591797 12.02294922 C15.93918795 14.98768836 18.28427189 17.97178168 20.6015625 20.98046875 C22.18150125 23.02969623 23.78753642 25.02078778 25.453125 27.00390625 C30.05261744 32.51400527 30.05261744 32.51400527 30.82421875 36.7578125 C30.19921875 39.3203125 30.19921875 39.3203125 27.19921875 41.3203125 C23.9819645 41.17525112 22.53611522 40.61283114 20.09375 38.4921875 C14.63374212 32.14095883 9.43108847 25.64156764 4.41894531 18.93408203 C3.21921843 17.34677324 1.98674672 15.78438547 0.75390625 14.22265625 C0.01398438 13.26488281 -0.7259375 12.30710937 -1.48828125 11.3203125 C-2.15214844 10.4746875 -2.81601563 9.6290625 -3.5 8.7578125 C-4.80078125 6.3203125 -4.80078125 6.3203125 -4.5703125 3.5703125 C-3.47386425 0.36445365 -3.46889739 0.39672188 0 0 Z " fill="#000000" transform="translate(113.80078125,41.6796875)"/>
<path d="M0 0 C2.93230193 1.32120828 4.98664899 2.74638197 7.234375 5.0390625 C7.80800781 5.61914062 8.38164062 6.19921875 8.97265625 6.796875 C9.55917969 7.40015625 10.14570313 8.0034375 10.75 8.625 C11.35199219 9.23601562 11.95398438 9.84703125 12.57421875 10.4765625 C14.05405305 11.97988624 15.52764676 13.48934856 17 15 C15.55092717 16.68502149 14.10175647 18.36995836 12.65234375 20.0546875 C11.19863938 21.76614087 9.78456674 23.50231289 8.375 25.25 C6.35908287 27.58421984 4.54941158 29.30039228 2 31 C-2.62586548 28.85081471 -6.21441532 26.34400637 -9 22 C-10.02810014 17.78941011 -10.00465515 14.21397019 -9 10 C-7.06181543 6.82797113 -4.77624809 4.44963067 -2 2 C-1.34 1.34 -0.68 0.68 0 0 Z " fill="#6C3815" transform="translate(187,238)"/>
<path d="M0 0 C4.9296788 2.19218018 8.22818619 5.37781319 11 10 C12.00809061 13.90210354 12.00809061 17.09789646 11 21 C8.12333757 25.79702897 4.98566124 28.50716938 0 31 C-4.95 26.05 -9.9 21.1 -15 16 C-11.40777239 11.80906779 -8.01936764 7.89786207 -4.125 4.0625 C-3.34382813 3.29035156 -2.56265625 2.51820313 -1.7578125 1.72265625 C-1.17773438 1.15417969 -0.59765625 0.58570313 0 0 Z " fill="#DF996B" transform="translate(322,238)"/>
<path d="M0 0 C0.37915198 14.16084025 -0.14452091 27.72778526 -2.59863281 41.69140625 C-2.95792612 43.75799841 -3.27477966 45.8318644 -3.5859375 47.90625 C-5.79666246 61.11317831 -10.77730796 74.15743921 -17 86 C-17.66 86 -18.32 86 -19 86 C-19.41814124 82.02765826 -18.8184048 79.27155004 -17.25 75.6875 C-8.58339384 54.96698739 -7.04860697 30.35449711 -5.68310547 8.19897461 C-5.62010254 7.2631958 -5.55709961 6.32741699 -5.4921875 5.36328125 C-5.44433105 4.54126221 -5.39647461 3.71924316 -5.34716797 2.87231445 C-5.23260254 2.25445068 -5.11803711 1.63658691 -5 1 C-3 0 -3 0 0 0 Z " fill="#F9F293" transform="translate(290,353)"/>
<path d="M0 0 C0.83337891 -0.02771484 1.66675781 -0.05542969 2.52539062 -0.08398438 C7.1802422 -0.06558575 9.79710694 0.37729043 13.16015625 3.73046875 C14.34931641 5.19419922 14.34931641 5.19419922 15.5625 6.6875 C14.24129172 9.61980193 12.81611803 11.67414899 10.5234375 13.921875 C9.65332031 14.78232422 9.65332031 14.78232422 8.765625 15.66015625 C8.16234375 16.24667969 7.5590625 16.83320313 6.9375 17.4375 C6.32648438 18.03949219 5.71546875 18.64148438 5.0859375 19.26171875 C3.58261376 20.74155305 2.07315144 22.21514676 0.5625 23.6875 C-3.83581531 20.00727699 -7.97508412 16.233208 -11.95703125 12.10546875 C-13.40104985 10.58251581 -13.40104985 10.58251581 -15.4375 9.6875 C-15.11659516 6.79935647 -14.24934835 5.43788048 -12.4765625 3.0859375 C-8.29617806 -0.2132348 -5.18014892 -0.09171934 0 0 Z " fill="#8D5022" transform="translate(255.4375,178.3125)"/>
<path d="M0 0 C5.66129431 4.69766975 10.85228904 9.74723372 16 15 C14.53140234 18.42672788 13.03674582 20.79233399 10 23 C6.86620094 23.64200944 3.81522804 23.64931576 0.625 23.625 C-0.21289062 23.65722656 -1.05078125 23.68945312 -1.9140625 23.72265625 C-5.45213615 23.72821926 -7.99743263 23.71366635 -10.93847656 21.62011719 C-12.6015625 19.9609375 -12.6015625 19.9609375 -15 17 C-13.67879172 14.06769807 -12.25361803 12.01335101 -9.9609375 9.765625 C-9.38085938 9.19199219 -8.80078125 8.61835938 -8.203125 8.02734375 C-7.59984375 7.44082031 -6.9965625 6.85429687 -6.375 6.25 C-5.76398438 5.64800781 -5.15296875 5.04601562 -4.5234375 4.42578125 C-3.02011376 2.94594695 -1.51065144 1.47235324 0 0 Z " fill="#8D5022" transform="translate(255,305)"/>
<path d="M0 0 C1.98 0.99 3.96 1.98 6 3 C-9.38946132 22.03433374 -31.08341052 35.65810934 -53 46 C-53.33 44.68 -53.66 43.36 -54 42 C-49.47119973 38.32104867 -44.91049405 34.87164483 -39.9375 31.8125 C-25.6363402 22.87177492 -11.79785086 12.05667026 0 0 Z " fill="#F8F196" transform="translate(203,345)"/>
<path d="M0 0 C4.52314547 0.71561843 6.29811423 3.26615147 8.984375 6.69921875 C9.49589111 7.32618652 10.00740723 7.9531543 10.53442383 8.59912109 C12.12023871 10.55545806 13.67805107 12.53187864 15.234375 14.51171875 C16.22208784 15.74004062 17.2103492 16.96792166 18.19921875 18.1953125 C25.90866281 27.90505205 25.90866281 27.90505205 26.234375 31.51171875 C25.109375 33.76171875 25.109375 33.76171875 23.234375 35.51171875 C20.88671875 35.89453125 20.88671875 35.89453125 18.234375 35.51171875 C16.05859375 33.67578125 16.05859375 33.67578125 13.921875 31.13671875 C12.75785156 29.76773437 12.75785156 29.76773437 11.5703125 28.37109375 C10.79945313 27.4275 10.02859375 26.48390625 9.234375 25.51171875 C8.52539062 24.650625 7.81640625 23.78953125 7.0859375 22.90234375 C5.10650025 20.4602794 3.16876455 17.98952172 1.234375 15.51171875 C0.62980469 14.77566406 0.02523438 14.03960937 -0.59765625 13.28125 C-1.14808594 12.59417969 -1.69851563 11.90710938 -2.265625 11.19921875 C-2.7503125 10.60496094 -3.235 10.01070313 -3.734375 9.3984375 C-5.07824751 6.93976165 -5.08994247 5.27292167 -4.765625 2.51171875 C-2.765625 0.51171875 -2.765625 0.51171875 0 0 Z " fill="#000000" transform="translate(395.765625,443.48828125)"/>
<path d="M0 0 C3.25 0.5625 3.25 0.5625 4.25 1.5625 C4.66081122 6.8560033 3.92798619 9.99894851 1.29296875 14.57421875 C0.67486328 15.66154297 0.05675781 16.74886719 -0.58007812 17.86914062 C-1.23427734 18.98482422 -1.88847656 20.10050781 -2.5625 21.25 C-3.52639648 22.94092773 -3.52639648 22.94092773 -4.50976562 24.66601562 C-10.37240021 34.87854281 -10.37240021 34.87854281 -12.75 37.5625 C-15.8125 37.9375 -15.8125 37.9375 -18.75 37.5625 C-20.75 35.5625 -20.75 35.5625 -21.23046875 33.0859375 C-20.50191478 27.74320838 -17.81066944 23.76241278 -15.0625 19.1875 C-14.53205078 18.28 -14.00160156 17.3725 -13.45507812 16.4375 C-12.40517917 14.64945122 -11.34466414 12.86758799 -10.27294922 11.0925293 C-9.28563523 9.45233454 -8.31717984 7.80058013 -7.37158203 6.13598633 C-6.73712158 5.045802 -6.73712158 5.045802 -6.08984375 3.93359375 C-5.72624756 3.29349365 -5.36265137 2.65339355 -4.98803711 1.99389648 C-3.75 0.5625 -3.75 0.5625 0 0 Z " fill="#000000" transform="translate(395.75,-0.5625)"/>
<path d="M0 0 C2 3 2 3 1.625 6.1875 C1.41875 7.115625 1.2125 8.04375 1 9 C-2.49865559 10.12921005 -5.9991568 11.25259226 -9.5 12.375 C-10.48226563 12.69210938 -11.46453125 13.00921875 -12.4765625 13.3359375 C-29.18229167 18.68177083 -29.18229167 18.68177083 -36 18 C-38 15 -38 15 -38 12.5 C-36.84086846 9.60217115 -35.83388192 9.0935269 -33.08203125 7.81201172 C-28.3349571 5.96060827 -23.40550464 4.67072932 -18.5 3.3125 C-17.38496094 2.99216797 -16.26992188 2.67183594 -15.12109375 2.34179688 C-14.03957031 2.03951172 -12.95804687 1.73722656 -11.84375 1.42578125 C-10.37711914 1.01453003 -10.37711914 1.01453003 -8.88085938 0.5949707 C-5.78190537 -0.04504208 -3.15260244 -0.31598536 0 0 Z " fill="#000000" transform="translate(499,200)"/>
<path d="M0 0 C2.13422805 1.81233002 4.01106411 3.77013505 5.92578125 5.8125 C7.88679944 7.88061711 9.90975835 9.75956816 12.0625 11.625 C12.71347656 12.19347656 13.36445312 12.76195313 14.03515625 13.34765625 C15.34839581 14.45203067 16.69057717 15.52284685 18.05859375 16.55859375 C22.8773655 20.2914451 22.8773655 20.2914451 23.5625 24.25 C23 27 23 27 21 29 C18.3359375 29.53515625 18.3359375 29.53515625 15 29 C12.2431212 27.11351376 9.96970118 24.80637028 7.625 22.4375 C6.3028881 21.15021462 4.97997866 19.8637478 3.65625 18.578125 C3.0271875 17.95873047 2.398125 17.33933594 1.75 16.70117188 C-0.96217536 14.06467105 -3.81214051 11.60082298 -6.6796875 9.13671875 C-8 8 -8 8 -9 7 C-8.6875 3.5 -8.6875 3.5 -8 0 C-4.85205492 -1.57397254 -3.36641385 -1.05979695 0 0 Z " fill="#000000" transform="translate(34,104)"/>
<path d="M0 0 C1 2 1 2 0.43017578 3.91674805 C0.1051709 4.69058838 -0.21983398 5.46442871 -0.5546875 6.26171875 C-0.91731689 7.12579346 -1.27994629 7.98986816 -1.65356445 8.88012695 C-2.05663818 9.80656006 -2.45971191 10.73299316 -2.875 11.6875 C-3.2877417 12.63778076 -3.7004834 13.58806152 -4.12573242 14.56713867 C-14.13503582 37.11803643 -29.45413918 55.8440472 -47 73 C-47.99 72.01 -48.98 71.02 -50 70 C-48.47544717 66.34273939 -46.29302019 64.15002074 -43.4375 61.4375 C-27.18419611 45.46402344 -14.84843046 25.87735965 -4.56201172 5.65844727 C-2.21072191 1.10536095 -2.21072191 1.10536095 0 0 Z " fill="#F8F195" transform="translate(401,135)"/>
<path d="M0 0 C2.93855863 1.68070957 5.54147242 3.7081006 8.1875 5.8125 C8.88552734 6.34681641 9.58355469 6.88113281 10.30273438 7.43164062 C17.38640757 12.91120895 17.38640757 12.91120895 20 16 C19.83849795 19.39154295 19.41703243 20.58296757 17 23 C10.61219957 23.11902734 6.10712801 18.90208712 1.25 15.25 C0.38761719 14.62867188 -0.47476562 14.00734375 -1.36328125 13.3671875 C-2.59884766 12.45066406 -2.59884766 12.45066406 -3.859375 11.515625 C-4.60670898 10.96165039 -5.35404297 10.40767578 -6.12402344 9.83691406 C-8.33163409 7.67527136 -9.18357259 5.96850656 -10 3 C-9.67 2.01 -9.34 1.02 -9 0 C-5.73071514 -1.63464243 -3.51245651 -0.83663537 0 0 Z " fill="#000000" transform="translate(478,380)"/>
<path d="M0 0 C5.18622385 1.41154105 8.86830117 3.73511248 13.125 6.875 C13.73214844 7.30941406 14.33929688 7.74382812 14.96484375 8.19140625 C18.23564545 10.56434081 21.33373797 12.93578841 24 16 C24 16.66 24 17.32 24 18 C15.45062789 20.48598764 7.27376991 19.22668662 -0.91796875 16.16796875 C-3 15 -3 15 -4 12 C-3.73046875 9.84375 -3.73046875 9.84375 -3.1875 7.5 C-3.01605469 6.7265625 -2.84460938 5.953125 -2.66796875 5.15625 C-2 3 -2 3 0 0 Z " fill="#F8E178" transform="translate(175,64)"/>
<path d="M0 0 C2.3125 1.25 2.3125 1.25 3.3125 2.25 C3.06645146 8.71513741 0.4659269 13.1932427 -2.875 18.625 C-3.34486328 19.44355469 -3.81472656 20.26210938 -4.29882812 21.10546875 C-7.86246209 26.96869189 -7.86246209 26.96869189 -11.9296875 28.35546875 C-14.6875 28.25 -14.6875 28.25 -16.625 27.1875 C-18.2556658 24.21393296 -17.51699102 22.52312673 -16.6875 19.25 C-15.26666017 16.24024847 -13.59286666 13.41086547 -11.875 10.5625 C-11.43607422 9.80388672 -10.99714844 9.04527344 -10.54492188 8.26367188 C-4.83485603 -1.34926215 -4.83485603 -1.34926215 0 0 Z " fill="#000000" transform="translate(123.6875,478.75)"/>
<path d="M0 0 C9.28928665 0.4222403 18.49115716 5.49115716 25 12 C25.33 12.99 25.66 13.98 26 15 C18.17813794 14.75556681 10.78475825 13.96060229 3.1875 12.125 C2.48818359 11.96354492 1.78886719 11.80208984 1.06835938 11.63574219 C-0.89453125 11.1328125 -0.89453125 11.1328125 -4 10 C-4.33 9.01 -4.66 8.02 -5 7 C-4.00390625 5.17578125 -4.00390625 5.17578125 -2.5625 3.3125 C-2.08941406 2.68988281 -1.61632813 2.06726563 -1.12890625 1.42578125 C-0.75636719 0.95527344 -0.38382813 0.48476563 0 0 Z " fill="#F7E179" transform="translate(63,325)"/>
<path d="M0 0 C4.86332315 3.68843542 8.03583923 7.50240362 11.3125 12.625 C11.75400391 13.29273438 12.19550781 13.96046875 12.65039062 14.6484375 C14.4471809 17.40003057 15.95664894 19.86994681 17 23 C15.25183142 23.50636607 13.50137737 24.00484619 11.75 24.5 C10.77546875 24.7784375 9.8009375 25.056875 8.796875 25.34375 C6 26 6 26 2 26 C-0.79110002 17.41072195 -2.55469456 8.87962383 0 0 Z " fill="#F7E077" transform="translate(436,315)"/>
<path d="M0 0 C6.37312799 8.49750399 6.1630301 19.72910392 6 30 C-2.34634106 23.65678079 -6.71548475 15.85354575 -10 6 C-6.7 4.02 -3.4 2.04 0 0 Z " fill="#F9E37A" transform="translate(339,65)"/>
<path d="M0 0 C0.33 0 0.66 0 1 0 C0.65869354 9.38004314 0.01861701 18.02617661 -3 27 C-3.33 27.99 -3.66 28.98 -4 30 C-7.91211733 28.84414715 -10.8745041 27.64465038 -14 25 C-12.43991053 15.3274453 -8.37204789 7.52952813 -1 1 C-0.67 0.67 -0.34 0.34 0 0 Z " fill="#F5DF78" transform="translate(341,418)"/>
<path d="M0 0 C2.8125 0.5625 2.8125 0.5625 4.8125 2.5625 C5.60212491 8.11429574 3.64659728 11.44002805 0.75 15.9375 C0.37939453 16.57816406 0.00878906 17.21882813 -0.37304688 17.87890625 C-1.53515625 19.7109375 -1.53515625 19.7109375 -4.1875 22.5625 C-7.99609375 22.9765625 -7.99609375 22.9765625 -11.1875 22.5625 C-13.39680257 18.26620919 -13.39680257 18.26620919 -12.46484375 15.1328125 C-11.0703749 12.58780521 -9.6681117 10.05860978 -8.1875 7.5625 C-7.77757812 6.83546875 -7.36765625 6.1084375 -6.9453125 5.359375 C-4.90447475 2.07802803 -3.88216802 0.68508847 0 0 Z " fill="#000000" transform="translate(138.1875,451.4375)"/>
<path d="M0 0 C1.8125 2.5 1.8125 2.5 3 5 C0.16003312 10.93993073 -3.80672537 11.99869703 -9.74609375 14.12890625 C-13.74163779 15.19854169 -16.08689439 15.18303193 -20 14 C-20.6875 11.1875 -20.6875 11.1875 -21 8 C-18.67772774 4.71360748 -15.2817685 3.7057539 -11.625 2.3125 C-10.50351562 1.87550781 -9.38203125 1.43851562 -8.2265625 0.98828125 C-5.2185334 0.06693577 -3.10647785 -0.42486464 0 0 Z " fill="#000000" transform="translate(32,304)"/>
<path d="M0 0 C4.55555556 1.55555556 4.55555556 1.55555556 6 3 C6.41015625 5.1640625 6.41015625 5.1640625 6 8 C4.20706293 10.37291835 2.52847386 12.30645613 0.4375 14.375 C-0.07619141 14.93316406 -0.58988281 15.49132812 -1.11914062 16.06640625 C-2.68985961 17.64688125 -4.05827234 18.90301018 -6 20 C-9.90234375 19.8515625 -9.90234375 19.8515625 -13 19 C-13.9375 16.5 -13.9375 16.5 -14 13 C-10.61663703 7.75930127 -5.59781354 2.79890677 0 0 Z " fill="#000000" transform="translate(323,470)"/>
<path d="M0 0 C4.64945364 1.26497436 7.41262776 2.84433582 10.8125 6.25 C11.58207031 6.99765625 12.35164063 7.7453125 13.14453125 8.515625 C15.31351937 11.41978593 15.78608116 13.40815338 16 17 C14.875 18.875 14.875 18.875 13 20 C10.7421875 20.39453125 10.7421875 20.39453125 8 20 C5.84813184 18.32142525 4.11026989 16.76553267 2.25 14.8125 C1.75628906 14.32974609 1.26257813 13.84699219 0.75390625 13.34960938 C-2.12011043 10.41653756 -3.90684606 8.18476156 -4 4 C-2.0625 1.6875 -2.0625 1.6875 0 0 Z " fill="#000000" transform="translate(218,22)"/>
<path d="M0 0 C0.94875 0.350625 1.8975 0.70125 2.875 1.0625 C3.25060402 5.23016108 3.33663921 7.38815379 0.93359375 10.8984375 C0.06863281 11.73632812 -0.79632813 12.57421875 -1.6875 13.4375 C-2.53441406 14.29085937 -3.38132813 15.14421875 -4.25390625 16.0234375 C-7.65429899 18.4384103 -9.98127107 18.95410281 -14.125 19.0625 C-16.125 17.0625 -16.125 17.0625 -16.5859375 14.30078125 C-15.9742899 10.00369772 -13.82502588 8.05211733 -10.75 5.25 C-10.24210938 4.76080078 -9.73421875 4.27160156 -9.2109375 3.76757812 C-3.99174389 -1.19752317 -3.99174389 -1.19752317 0 0 Z " fill="#000000" transform="translate(208.125,22.9375)"/>
<path d="M0 0 C1.55074219 0.40605469 1.55074219 0.40605469 3.1328125 0.8203125 C4.0703125 3.3203125 4.0703125 3.3203125 4.1328125 6.8203125 C2.13911317 9.82814791 -0.32555854 12.27326429 -2.8671875 14.8203125 C-3.8571875 16.0578125 -3.8571875 16.0578125 -4.8671875 17.3203125 C-7.88763858 19.58565081 -10.21666269 19.29352868 -13.8671875 18.8203125 C-15.8671875 15.8203125 -15.8671875 15.8203125 -15.8125 13.5 C-14.5463337 9.91078478 -12.37387901 7.59100237 -9.7421875 4.9453125 C-9.28070313 4.43484375 -8.81921875 3.924375 -8.34375 3.3984375 C-5.40816033 0.41445899 -4.25038015 -0.19749241 0 0 Z " fill="#000000" transform="translate(229.8671875,0.1796875)"/>
<path d="M0 0 C5.70787296 0.14931416 8.45762312 1.61483487 12.4375 5.625 C13.73494141 6.88183594 13.73494141 6.88183594 15.05859375 8.1640625 C17.47344752 11.69159537 17.45158665 13.80887001 17 18 C16 19 16 19 12.80859375 19.3828125 C8.14083929 18.91364333 6.13527879 17.15603074 3.0625 13.875 C2.56943359 13.400625 2.07636719 12.92625 1.56835938 12.4375 C-0.91064662 9.89316653 -1.9584726 8.30502427 -2.44140625 4.7578125 C-2 2 -2 2 0 0 Z " fill="#000000" transform="translate(194,0)"/>
<path d="M0 0 C2 2 2 2 2.4453125 4.7578125 C1.86184497 9.00586556 -0.14239531 11.0314805 -3.125 13.875 C-3.599375 14.37257813 -4.07375 14.87015625 -4.5625 15.3828125 C-7.1061417 17.88520596 -8.67751375 18.95570671 -12.2421875 19.4453125 C-15 19 -15 19 -17 17 C-17.26217159 12.71786398 -16.75631985 10.91376387 -13.9921875 7.57421875 C-6.02974467 -0.45223085 -6.02974467 -0.45223085 0 0 Z " fill="#000000" transform="translate(304,493)"/>
<path d="M0 0 C2.33605565 1.83777527 4.26942113 3.56994681 6.3125 5.6875 C7.13717773 6.48317383 7.13717773 6.48317383 7.97851562 7.29492188 C10.36209903 9.70811501 11.89231318 11.37926863 12.48046875 14.76953125 C12 17 12 17 10 19 C7.03363452 19.51922036 4.97392464 19.61969058 2.37158203 17.96386719 C0.66840627 16.51310896 -0.88349806 14.98416235 -2.4375 13.375 C-2.99115234 12.85292969 -3.54480469 12.33085937 -4.11523438 11.79296875 C-5.68359375 10.2109375 -5.68359375 10.2109375 -8 7 C-7.97265625 3.6640625 -7.97265625 3.6640625 -7 1 C-4.30908677 -0.34545661 -3.00281913 -0.45317581 0 0 Z " fill="#000000" transform="translate(317,493)"/>
<path d="M0 0 C3.2212416 1.63403098 5.41869189 3.58933554 8 6.11328125 C8.88300781 6.95375 9.76601563 7.79421875 10.67578125 8.66015625 C12.6875 11.36328125 12.6875 11.36328125 13.10546875 14.56640625 C12.6875 17.36328125 12.6875 17.36328125 10.6875 19.36328125 C8.45703125 19.84375 8.45703125 19.84375 5.6875 19.36328125 C3.35144435 17.52550598 1.41807887 15.79333444 -0.625 13.67578125 C-1.17478516 13.14533203 -1.72457031 12.61488281 -2.29101562 12.06835938 C-4.67968414 9.65001796 -6.20781898 7.99314163 -6.7734375 4.58984375 C-6.3125 2.36328125 -6.3125 2.36328125 -4.625 0.42578125 C-2.3125 -0.63671875 -2.3125 -0.63671875 0 0 Z " fill="#000000" transform="translate(293.3125,470.63671875)"/>
<path d="M0 0 C4.19426627 0.49049892 6.28213955 1.98932292 9.6484375 4.5078125 C10.70804687 5.27351563 11.76765625 6.03921875 12.859375 6.828125 C15.2734375 9.3828125 15.2734375 9.3828125 15.75 12.5625 C15.2734375 15.3828125 15.2734375 15.3828125 13.2734375 17.3828125 C6.85868174 18.19032772 3.49574634 15.37683067 -1.4140625 11.62109375 C-3.63162047 9.4747074 -4.53629712 8.49298196 -5.0390625 5.5078125 C-4.6388633 1.50582047 -4.01344234 0.5634919 0 0 Z " fill="#000000" transform="translate(449.7265625,361.6171875)"/>
<path d="M0 0 C3.573779 1.3107423 5.01521958 3.30000551 7.359375 6.26953125 C8.13796875 7.23503906 8.9165625 8.20054687 9.71875 9.1953125 C11.37628276 11.6165432 12.34415465 13.0711813 12.609375 15.95703125 C11.484375 18.20703125 11.484375 18.20703125 9.609375 19.95703125 C7.32421875 20.3828125 7.32421875 20.3828125 4.609375 19.95703125 C1.93359375 17.796875 1.93359375 17.796875 -0.703125 14.89453125 C-2.02763672 13.48494141 -2.02763672 13.48494141 -3.37890625 12.046875 C-5.79437919 8.33689618 -6.03249091 6.30397679 -5.390625 1.95703125 C-2.390625 -0.04296875 -2.390625 -0.04296875 0 0 Z " fill="#000000" transform="translate(378.390625,421.04296875)"/>
<path d="M0 0 C2.75 0.75 2.75 0.75 4.75 2.75 C5.87312799 8.36563995 3.1291595 12.00061528 0.2578125 16.578125 C-1.25 18.75 -1.25 18.75 -3.25 20.75 C-5.6875 21.125 -5.6875 21.125 -8.25 20.75 C-10.1875 19.125 -10.1875 19.125 -11.25 16.75 C-10.23524377 10.6614626 -6.33011876 1.46079664 0 0 Z " fill="#000000" transform="translate(373.25,38.25)"/>
<path d="M0 0 C7.75 0.75 7.75 0.75 10 3 C5.64275894 10.25469578 1.28753424 17.37055367 -4 24 C-4.99 23.67 -5.98 23.34 -7 23 C-7.57279445 14.12168597 -5.60700402 7.02080446 0 0 Z " fill="#F6DF77" transform="translate(444,175)"/>
<path d="M0 0 C4.18189989 2.69228883 9.11329969 6.23288351 10.6796875 11.12109375 C10.6875 13 10.6875 13 10 16 C9 17 9 17 6 17.5625 C1.10169508 17.51168771 -1.79506146 14.41623767 -5.1640625 11.16796875 C-7 9 -7 9 -8.25 5.6875 C-8 3 -8 3 -6.875 1.125 C-4.331012 -0.4013928 -2.94594689 -0.35181812 0 0 Z " fill="#000000" transform="translate(67,134)"/>
<path d="M0 0 C3.36582622 1.19662506 4.68447461 2.8210471 6.89453125 5.60546875 C7.59191406 6.45496094 8.28929688 7.30445313 9.0078125 8.1796875 C10.86470989 11.40967527 11.13091887 13.25016833 10.58203125 16.91796875 C7.58203125 18.91796875 7.58203125 18.91796875 4.671875 18.87109375 C0.6978918 17.645238 -0.47450173 16.03462911 -2.85546875 12.66796875 C-3.55542969 11.7140625 -4.25539063 10.76015625 -4.9765625 9.77734375 C-6.41796875 6.91796875 -6.41796875 6.91796875 -6.328125 4.18359375 C-5.03049283 0.95343643 -3.4922369 -0.11847653 0 0 Z " fill="#000000" transform="translate(98.41796875,20.08203125)"/>
<path d="M0 0 C3 0.125 3 0.125 4 1.125 C4.94164047 7.31292309 2.70780543 11.41195983 -0.1015625 16.8671875 C-2 19.125 -2 19.125 -5.2109375 19.9453125 C-6.13132812 20.00460938 -7.05171875 20.06390625 -8 20.125 C-8 19.465 -8 18.805 -8 18.125 C-8.66 18.125 -9.32 18.125 -10 18.125 C-10.33833293 13.2659633 -9.49919492 10.50361527 -7.0625 6.3125 C-6.51722656 5.35730469 -5.97195313 4.40210937 -5.41015625 3.41796875 C-3.39513368 0.1414639 -3.39513368 0.1414639 0 0 Z " fill="#000201" transform="translate(464,105.875)"/>
<path d="M0 0 C1.35439668 2.70879335 1.06501451 5.00933268 1 8 C0.37351562 8.27714844 -0.25296875 8.55429687 -0.8984375 8.83984375 C-1.71570313 9.20207031 -2.53296875 9.56429688 -3.375 9.9375 C-4.18710937 10.29714844 -4.99921875 10.65679687 -5.8359375 11.02734375 C-7.23683785 11.6569903 -8.62625284 12.31312642 -10 13 C-13 13.1875 -13 13.1875 -16 13 C-18 11 -18 11 -18.125 7.875 C-18.08375 6.92625 -18.0425 5.9775 -18 5 C-11.75838097 1.41874318 -7.24579719 -0.67090715 0 0 Z " fill="#000000" transform="translate(56,296)"/>
<path d="M0 0 C2.625 0.5625 2.625 0.5625 5 2 C6.58040936 6.40767436 5.52409129 9.46086636 3.9375 13.75 C3.53402344 14.89984375 3.13054688 16.0496875 2.71484375 17.234375 C1 20 1 20 -2.05859375 21.015625 C-5 21 -5 21 -7 19 C-7.77498428 12.80012579 -5.97983754 7.45140848 -3 2 C-2.01 1.34 -1.02 0.68 0 0 Z " fill="#000200" transform="translate(33,386)"/>
<path d="M0 0 C1.98 1.65 3.96 3.3 6 5 C4.67879172 7.93230193 3.25361803 9.98664899 0.9609375 12.234375 C0.09082031 13.09482422 0.09082031 13.09482422 -0.796875 13.97265625 C-1.40015625 14.55917969 -2.0034375 15.14570313 -2.625 15.75 C-3.23601562 16.35199219 -3.84703125 16.95398438 -4.4765625 17.57421875 C-5.97988624 19.05405305 -7.48934856 20.52764676 -9 22 C-9.99 21.34 -10.98 20.68 -12 20 C-11.42676628 15.78864291 -9.99298383 12.98705648 -7.6875 9.4375 C-7.09324219 8.50808594 -6.49898437 7.57867187 -5.88671875 6.62109375 C-4.10083598 4.14008477 -2.22512921 2.08759363 0 0 Z " fill="#693614" transform="translate(198,203)"/>
<path d="M0 0 C5.85788403 5.32534912 11.90755963 11.95043936 13 20 C12.01 20.66 11.02 21.32 10 22 C5.05 17.05 0.1 12.1 -5 7 C-3.38262276 3.76524552 -2.52370777 2.29427979 0 0 Z " fill="#D99669" transform="translate(312,203)"/>
<path d="M0 0 C0.66 0.33 1.32 0.66 2 1 C2 7.6 2 14.2 2 21 C-1.66771845 19.16614077 -3.46834996 17.74937171 -6.25 14.875 C-6.95640625 14.15054687 -7.6628125 13.42609375 -8.390625 12.6796875 C-8.92171875 12.12539062 -9.4528125 11.57109375 -10 11 C-6.79239749 7.19364503 -3.59253891 3.45436433 0 0 Z " fill="#925425" transform="translate(317,243)"/>
<path d="M0 0 C3.41059403 1.60535287 5.61792484 3.40518901 8.25 6.125 C8.95640625 6.84945312 9.6628125 7.57390625 10.390625 8.3203125 C11.18726563 9.15175781 11.18726563 9.15175781 12 10 C8.6189962 14.13621084 5.33409466 17.81316569 1 21 C-0.17426264 18.65147472 -0.11508173 17.26225935 -0.09765625 14.6484375 C-0.09443359 13.79765625 -0.09121094 12.946875 -0.08789062 12.0703125 C-0.07951172 11.18085938 -0.07113281 10.29140625 -0.0625 9.375 C-0.05798828 8.4778125 -0.05347656 7.580625 -0.04882812 6.65625 C-0.03702591 4.43743352 -0.02056155 2.21874982 0 0 Z " fill="#8E5122" transform="translate(192,243)"/>
<path d="M0 0 C2.93230193 1.32120828 4.98664899 2.74638197 7.234375 5.0390625 C8.09482422 5.90917969 8.09482422 5.90917969 8.97265625 6.796875 C9.55917969 7.40015625 10.14570313 8.0034375 10.75 8.625 C11.35199219 9.23601562 11.95398438 9.84703125 12.57421875 10.4765625 C14.05405305 11.97988624 15.52764676 13.48934856 17 15 C15.1875 17.5 15.1875 17.5 13 20 C12.01 20 11.02 20 10 20 C8.0625 17.76953125 8.0625 17.76953125 6 14.8125 C5.319375 13.84957031 4.63875 12.88664062 3.9375 11.89453125 C-1.05825815 4.43111031 -1.05825815 4.43111031 -0.6875 1.6875 C-0.460625 1.130625 -0.23375 0.57375 0 0 Z " fill="#6D3815" transform="translate(187,283)"/>
<path d="M0 0 C-3.72466974 4.12348715 -7.30111839 6.47454339 -12.3125 8.8125 C-12.95767578 9.12380859 -13.60285156 9.43511719 -14.26757812 9.75585938 C-15.84059344 10.51323712 -17.41969126 11.25796058 -19 12 C-20.31626692 8.38026598 -21 5.90432869 -21 2 C-14.11997829 -0.62096065 -7.27823961 -0.18170362 0 0 Z " fill="#F5DF78" transform="translate(190,435)"/>
<path d="M0 0 C-0.5805321 3.30118794 -1.54868099 4.91134076 -3.94140625 7.234375 C-4.52470703 7.80800781 -5.10800781 8.38164062 -5.70898438 8.97265625 C-6.32064453 9.55917969 -6.93230469 10.14570313 -7.5625 10.75 C-8.17802734 11.35199219 -8.79355469 11.95398438 -9.42773438 12.57421875 C-10.94514813 14.05634381 -12.47170596 15.5290967 -14 17 C-17.32635882 15.47427344 -18.95563002 14.06655496 -21 11 C-18.7516034 9.53914338 -16.50137827 8.08124864 -14.25 6.625 C-13.61578125 6.2125 -12.9815625 5.8 -12.328125 5.375 C-4.00554435 0 -4.00554435 0 0 0 Z " fill="#6A3714" transform="translate(226,185)"/>
<path d="M0 0 C4.32243729 0.59014827 7.39046463 2.15674215 11.125 4.375 C12.15882813 4.98085937 13.19265625 5.58671875 14.2578125 6.2109375 C16.50775399 7.67884804 18.2279324 9.00795159 20 11 C18.60840337 14.47899158 17.36748512 15.48052501 14 17 C11.65453302 14.74141867 9.32587973 12.46623352 7 10.1875 C6.33226562 9.54490234 5.66453125 8.90230469 4.9765625 8.24023438 C4.34492188 7.61826172 3.71328125 6.99628906 3.0625 6.35546875 C2.47597656 5.78465576 1.88945312 5.21384277 1.28515625 4.62573242 C0 3 0 3 0 0 Z " fill="#D89568" transform="translate(285,185)"/>
<path d="M0 0 C0.99 0.33 1.98 0.66 3 1 C2.34452695 4.70560765 0.70671673 7.35227028 -1.3125 10.5 C-1.90675781 11.4384375 -2.50101562 12.376875 -3.11328125 13.34375 C-4.89395857 15.85070772 -6.75971497 17.90313278 -9 20 C-12.16115776 18.63016497 -12.9927092 18.0109362 -15 15 C-10.05 10.05 -5.1 5.1 0 0 Z " fill="#E29C6D" transform="translate(322,283)"/>
<path d="M0 0 C1.18239258 0.00676758 1.18239258 0.00676758 2.38867188 0.01367188 C4.32164761 0.02538688 6.25458393 0.04332002 8.1875 0.0625 C6.92389843 2.89390351 6.30581823 3.97967724 3.6875 5.8125 C-1.33355154 7.60573269 -6.7786355 8.4475251 -11.7890625 6.16015625 C-13.4375 5.0625 -13.4375 5.0625 -15.8125 3.0625 C-11.69400695 -1.05599305 -5.47596207 -0.059671 0 0 Z " fill="#F8E178" transform="translate(83.8125,169.9375)"/>
<path d="M0 0 C5.62219846 4.66522851 11.16010796 9.51259405 16 15 C16 15.66 16 16.32 16 17 C11.57688009 15.66246973 7.75359826 13.92857789 3.75 11.625 C2.19539062 10.74714844 2.19539062 10.74714844 0.609375 9.8515625 C-1.98392862 8.01140395 -2.93749484 6.94132526 -4 4 C-2.68 2.68 -1.36 1.36 0 0 Z " fill="#6C3815" transform="translate(210,305)"/>
<path d="M0 0 C1.65 1.32 3.3 2.64 5 4 C3.67763993 7.9670802 1.23468621 9.02880831 -2.1875 11.0625 C-2.75275391 11.41376953 -3.31800781 11.76503906 -3.90039062 12.12695312 C-7.48872628 14.30132834 -10.97813094 15.82212333 -15 17 C-13.67879172 14.06769807 -12.25361803 12.01335101 -9.9609375 9.765625 C-9.38085938 9.19199219 -8.80078125 8.61835938 -8.203125 8.02734375 C-7.59984375 7.44082031 -6.9965625 6.85429687 -6.375 6.25 C-5.76398438 5.64800781 -5.15296875 5.04601562 -4.5234375 4.42578125 C-3.02011376 2.94594695 -1.51065144 1.47235324 0 0 Z " fill="#E09A6C" transform="translate(300,305)"/>
<path d="M0 0 C0.66 0.33 1.32 0.66 2 1 C1 4 1 4 -1.43359375 5.421875 C-2.42488281 5.86015625 -3.41617187 6.2984375 -4.4375 6.75 C-5.42621094 7.19859375 -6.41492188 7.6471875 -7.43359375 8.109375 C-8.28050781 8.40328125 -9.12742187 8.6971875 -10 9 C-10.66 8.67 -11.32 8.34 -12 8 C-11.21753906 7.50628906 -10.43507813 7.01257813 -9.62890625 6.50390625 C-8.61699219 5.86324219 -7.60507812 5.22257812 -6.5625 4.5625 C-5.55316406 3.92441406 -4.54382813 3.28632813 -3.50390625 2.62890625 C-1.15446165 1.22350458 -1.15446165 1.22350458 0 0 Z " fill="#7C451D" transform="translate(304,333)"/>
<path d="M0 0 C5.65020618 0.60108576 10.66164461 2.07528683 16 4 C15.01 4.99 14.02 5.98 13 7 C12.48050781 6.73445312 11.96101563 6.46890625 11.42578125 6.1953125 C7.66979306 4.29301903 3.94774121 2.48040295 0 1 C0 0.67 0 0.34 0 0 Z " fill="#80471E" transform="translate(277,160)"/>
<path d="M0 0 C-2.52956528 3.0916909 -5.22454612 3.90931332 -9 5 C-8.6875 3.0625 -8.6875 3.0625 -8 1 C-5.07175348 0.02391783 -3.04386724 -0.08226668 0 0 Z " fill="#E8E185" transform="translate(451,268)"/>
</svg>
