<?xml version="1.0" standalone="no"?><!DOCTYPE svg PUBLIC "-//W3C//DTD SVG 1.1//EN" "http://www.w3.org/Graphics/SVG/1.1/DTD/svg11.dtd"><svg t="1729861157990" class="icon" viewBox="0 0 1024 1024" version="1.1" xmlns="http://www.w3.org/2000/svg" p-id="4782" id="mx_n_1729861157992" data-darkreader-inline-fill="" width="32" height="32" xmlns:xlink="http://www.w3.org/1999/xlink"><path d="M518.193548 0l75.904 87.671742 27.189678 55.122581 1.011613 4.290064 30.592-26.487742 108.705032-40.993032 26.648774 112.962064-1.536 61.303742-12.110451 46.703484 27.425032 4.265291 59.239226 13.795096 100.405677 66.052129-78.336 90.991484-52.240516 35.992774-70.874839 27.870968a20.645161 20.645161 0 0 1-28.003097-16.33858l-28.762838-204.647226-141.320258-75.136A20.628645 20.628645 0 0 1 556.923871 239.483871H435.629419l-125.150967 81.275871-32.222968 203.474581a20.645161 20.645161 0 0 1-29.390452 15.351742l-68.554322-33.19742-52.624516-30.517677-76.71742-92.531613 101.528774-64.123871 60.490323-19.146323 5.400774-0.42529-10.169806-35.096774-12.948645-61.497807 18.006709-122.88 119.428129 33.626839 56.518194 33.209806 23.869935 22.672517 8.030968-26.88 20.992-55.12671L518.193548 0z" fill="#E8CD26" p-id="4783" data-darkreader-inline-fill="" style="--darkreader-inline-fill: #84740e;"></path><path d="M499.323871 445.935484m-156.903226 0a156.903226 156.903226 0 1 0 313.806452 0 156.903226 156.903226 0 1 0-313.806452 0Z" fill="#EC7626" p-id="4784" data-darkreader-inline-fill="" style="--darkreader-inline-fill: #b15110;"></path><path d="M811.17729 603.870968a8.258065 8.258065 0 0 1 7.795613 11.34658c-15.587097 38.656-27.528258 63.987613-35.815226 75.998968-14.336 20.773161-49.399742 57.682581-79.789419 68.071226-30.385548 10.384516-79.248516 23.436387-109.117935 23.436387-17.837419 0-42.40929-3.138065-61.609291-15.607742L532.645161 817.548387h-45.419355v-55.989677c-19.893677 17.127226-48.796903 21.165419-69.03329 21.165419-29.869419 0-78.732387-13.047742-109.117935-23.436387-30.389677-10.388645-65.453419-47.298065-79.785291-68.071226-8.291097-12.015484-20.232258-37.342968-35.819355-75.998968a8.258065 8.258065 0 0 1 7.795613-11.34658l4.463484 0.078451c80.061935 1.453419 144.619355 7.845161 193.668129 19.171097 49.911742 11.52 84.389161 31.525161 100.170323 56.538839a22.829419 22.829419 0 0 1 14.67871-2.08929c16.355097-24.039226 50.291613-43.251613 98.799483-54.449549 49.052903-11.325935 113.606194-17.713548 193.668129-19.171097l4.463484-0.078451z" fill="#2E4415" p-id="4785" data-darkreader-inline-fill="" style="--darkreader-inline-fill: #253611;"></path></svg>