<svg
  t="1746773484896"
  class="icon"
  viewBox="0 0 1024 1024"
  version="1.1"
  xmlns="http://www.w3.org/2000/svg"
  p-id="28488"
  width="32"
  height="32"
>
  <path
    d="M512 1024c282.77 0 512-229.23 512-512S794.77 0 512 0 0 229.23 0 512s229.23 512 512 512z"
    fill="#FFCC4D"
    p-id="28489"
  ></path>
  <path
    d="M777.529 672.114c-5.063-4.58-12.629-4.864-18.062-0.825-1.11 0.825-111.559 82.489-247.467 82.489-135.566 0-246.386-81.664-247.467-82.489-5.433-4.039-12.999-3.698-18.062 0.825-5.035 4.551-6.172 12.06-2.674 17.863 3.67 6.116 91.506 149.134 268.203 149.134 176.697 0 264.562-143.018 268.203-149.134a14.186 14.186 0 0 0-2.674-17.863z"
    fill="#664500"
    p-id="28490"
  ></path>
  <path
    d="M512 756.366c-4.21 0-8.277-0.312-12.459-0.455v128.455h24.889V755.883c-4.124 0.142-8.22 0.483-12.43 0.483z"
    fill="#65471B"
    p-id="28491"
  ></path>
  <path
    d="M625.778 739.556c0.455-0.114-41.245 10.752-69.575 13.824-10.411 1.194-20.964 2.161-31.773 2.531v128.484h44.459c31.289 0 56.889-25.6 56.889-56.889v-87.95z m-227.556 0c-0.455-0.114 41.245 10.752 69.575 13.824 10.411 1.194 20.964 2.161 31.773 2.531v128.484h-44.459c-31.289 0-56.889-25.6-56.889-56.889v-87.95z"
    fill="#FFFFFF"
    p-id="28492"
  ></path>
  <path
    d="M777.529 672.114c-5.063-4.58-12.629-4.864-18.062-0.825-0.854 0.626-64.256 47.445-153.913 70.258-12.601 3.214-53.021 12.231-93.469 12.259-40.505 0-81.038-9.045-93.639-12.259-89.657-22.813-153.059-69.632-153.913-70.258-5.404-4.039-12.999-3.755-18.062 0.825a14.186 14.186 0 0 0-2.674 17.863c2.759 4.608 53.618 87.239 154.425 127.459v-52.025c-0.455-0.113 41.245 10.752 69.575 13.824 10.411 1.195 20.964 2.162 31.773 2.532 4.153 0.142 8.22 0.455 12.43 0.455 4.21 0 8.277-0.313 12.459-0.455 10.809-0.37 21.361-1.308 31.772-2.532 28.331-3.072 70.03-13.937 69.575-13.824v52.025c100.807-40.22 151.666-122.851 154.425-127.459 3.47-5.831 2.361-13.312-2.702-17.863z m-20.224-273.209c0 48.754-26.681 88.291-59.62 88.291-32.91 0-59.619-39.537-59.619-88.291s26.681-88.292 59.619-88.292c32.939 0 59.62 39.538 59.62 88.292z m-488.306 0c0 48.754 26.681 88.291 59.62 88.291 32.91 0 59.619-39.537 59.619-88.291s-26.681-88.292-59.619-88.292c-32.939 0-59.62 39.538-59.62 88.292z"
    fill="#65471B"
    p-id="28493"
  ></path>
  <path
    d="M990.094 273.835c-4.864-4.722-36.039 7.794-67.584-8.277-65.081-33.167-229.546-65.167-336.611 10.695-11.463 8.106-59.364 9.472-72.761 8.903-13.398 0.597-61.298-0.768-72.761-8.903-107.037-75.862-271.502-43.862-336.583-10.695-31.545 16.071-62.72 3.555-67.584 8.277-7.026 6.798-7.026 34.019 0.028 40.846 6.998 6.798 42.013 14.649 48.982 35.044 7.025 20.423 7.082 141.027 62.947 182.727 52.309 39.026 174.336 50.773 251.677 6.77 67.47-38.372 65.109-119.154 77.482-167.282 4.409-17.152 16.839-25.799 35.84-25.799 19.001 0 31.431 8.647 35.84 25.799 12.374 48.099 9.984 128.91 77.483 167.282 77.34 43.975 199.367 32.227 251.648-6.77 55.893-41.671 55.95-162.304 62.947-182.727 6.969-20.395 41.984-28.274 48.982-35.044 7.054-6.827 7.082-34.048 0.028-40.846zM415.687 377.657c-2.19 31.431-7.794 91.79-45.426 113.209C347.193 504.007 317.127 512 285.668 512h-0.029c-34.844 0-83.143-9.87-102.03-23.95-23.609-17.607-32.597-90.084-35.982-117.191-2.162-17.266-7.965-59.449 11.036-65.934 30.151-10.269 72.221-18.29 115.257-18.29 19.712 0 85.931 1.223 118.187 21.077 28.586 17.55 24.803 52.651 23.58 69.945z m463.019-7.196c-3.385 27.136-12.373 99.982-35.982 117.589C823.837 502.13 775.538 512 740.693 512h-0.028c-31.488 0-61.525-7.993-84.622-21.134-37.632-21.39-43.236-81.38-45.426-112.811-1.195-17.294-5.006-52.65 23.58-70.201 32.285-19.854 98.475-21.219 118.187-21.219 43.036 0 85.077 7.879 115.257 18.147 19.001 6.486 13.227 48.413 11.065 65.679z"
    fill="#292F33"
    p-id="28494"
  ></path>
</svg>
